<?xml version="1.0" standalone="no"?>
<!DOCTYPE svg PUBLIC "-//W3C//DTD SVG 1.1//EN" "http://www.w3.org/Graphics/SVG/1.1/DTD/svg11.dtd" >
<!--
2013-9-30: Created.
-->
<svg>
<metadata>
Created by iconfont
</metadata>
<defs>

<font id="iconfont" horiz-adv-x="1024" >
  <font-face
    font-family="iconfont"
    font-weight="500"
    font-stretch="normal"
    units-per-em="1024"
    ascent="896"
    descent="-128"
  />
    <missing-glyph />
    
    <glyph glyph-name="star-s" unicode="&#59710;" d="M1019.63776 492.90752c0-8.94976-5.28896-18.7136-15.86688-29.28128l-221.48608-215.99744 52.47488-305.07008c0.4096-2.85184 0.6144-6.92224 0.6144-12.20096 0-8.54016-2.13504-15.75936-6.41024-21.66784-4.27008-5.888-10.4704-8.84224-18.6112-8.84224-7.7312 0-15.86688 2.44224-24.40704 7.3216L512 51.15904l-273.95584-143.98976c-8.94976-4.87936-17.08544-7.3216-24.40704-7.3216-8.54016 0-14.94528 2.94912-19.21536 8.84224-4.27008 5.90848-6.40512 13.12768-6.40512 21.66784 0 2.44224 0.40448 6.50752 1.21856 12.20096l52.47488 305.07008L19.61472 463.62624C9.4464 474.60352 4.36224 484.36736 4.36224 492.90752c0 15.04768 11.38688 24.40704 34.16576 28.06784l306.28864 44.53888L482.0992 843.13088C489.8304 859.80672 499.79392 868.1472 512 868.1472s22.16448-8.34048 29.89568-25.01632l137.28256-277.61664 306.28864-44.53888c22.784-3.6608 34.17088-13.02016 34.17088-28.06784z"  horiz-adv-x="1024" />

    
    <glyph glyph-name="heart-s" unicode="&#59711;" d="M1024 544c0-336.9984-512-592-512-592S0 205.99808 0 544c0 150.20032 121.79968 272 272 272 101.2992 0 189.70112-55.3984 236.49792-137.6a3.95264 3.95264 0 0 1 6.90176 0c46.8992 82.2016 135.30112 137.6 236.60032 137.6C902.20032 816 1024 694.20032 1024 544z"  horiz-adv-x="1024" />

    
    <glyph glyph-name="star-l" unicode="&#59712;" d="M1018.4448 509.76256c-8.84224 25.5232-31.46752 44.16-58.74688 48.24576L694.20544 597.504l-115.44576 239.64672c-12.1344 25.1904-38.12352 41.30304-66.74432 41.30304-28.5184 0-54.51264-16.11264-66.68288-41.30304L329.88672 597.504l-265.5488-39.49568c-27.28448-4.09088-49.90464-22.72256-58.74176-48.24576-8.79616-25.5232-2.14016-53.6576 17.15712-72.8576l194.5344-194.39616-45.14816-269.53728c-4.51584-27.14624 7.22432-54.42048 30.27968-70.2976a74.75712 74.75712 0 0 1 42.43968-13.11744c12.43648 0 24.68352 3.06688 35.65056 8.92928l231.47008 124.67712 231.56736-124.67712a75.04896 75.04896 0 0 1 35.59424-8.92928 75.3664 75.3664 0 0 1 42.49088 13.11744c23.00416 15.88224 34.7392 43.1104 30.1824 70.2976l-45.1072 269.53728 194.68288 194.39616c19.18976 19.2 25.7536 47.3344 17.05472 72.8576z m-251.28448-215.78752l-32.41984-32.3584 7.51616-45.14816 45.10208-269.02528-233.23136 125.48096-42.14784 22.72256-42.1632-22.72256-233.27744-125.52192 45.1072 269.06624 7.55712 45.14816-32.41472 32.3584-192.96768 192.59392 264.68352 39.31136 46.58176 6.93248 20.43392 42.40384 116.44928 241.54112 116.44928-241.54112 20.48-42.40384 46.53056-6.93248 264.68864-39.31136-192.95744-192.59392z"  horiz-adv-x="1024" />

    
    <glyph glyph-name="menu-l" unicode="&#59709;" d="M56.354133 643.25632h911.179094c23.804587 0 43.260587 19.459413 43.260586 43.260587 0 23.804587-19.254613 43.264-43.260586 43.264H56.354133c-23.804587 0-43.260587-19.459413-43.260586-43.260587 0-23.804587 19.456-43.264 43.260586-43.264z m911.179094-216.098133H56.354133c-23.804587 0-43.260587-19.459413-43.260586-43.260587 0-23.808 19.456-43.267413 43.260586-43.267413h911.179094c23.804587 0 43.260587 19.459413 43.260586 43.267413 0 23.801173-19.456 43.260587-43.260586 43.260587z m0-302.41792H56.354133c-23.804587 0-43.260587-19.247787-43.260586-43.260587 0-24.005973 19.456-43.260587 43.260586-43.260587h911.179094c23.804587 0 43.260587 19.254613 43.260586 43.260587 0 24.0128-19.456 43.260587-43.260586 43.260587z"  horiz-adv-x="1024" />

    
    <glyph glyph-name="horn-s" unicode="&#59678;" d="M223.245653 564.76672l232.543574 173.499733c16.039253 11.66336 38.638933 9.475413 51.029333-5.102933 5.102933-5.829973 8.021333-13.120853 8.021333-21.142187v-645.154133c0-18.950827-16.042667-33.529173-36.450986-33.529173-8.021333 0-16.042667 2.914987-22.603094 7.29088L216.6784 217.767253H36.621653c-20.411733 0-36.450987 15.3088-36.450986 33.536v279.20384c0 18.95424 16.03584 33.532587 36.450986 33.532587 0 0.72704 186.624 0.72704 186.624 0.72704z m468.00896-384.907947c-14.578347-13.124267-37.905067-12.393813-51.759786 1.457494-13.851307 13.124267-13.124267 34.266453 0.730453 47.383893 46.65344 43.014827 73.6256 101.33504 73.6256 161.839787 0 56.13568-22.596267 110.80704-63.419733 152.36096-13.851307 13.851307-13.124267 34.99008 2.187946 48.114346 14.578347 12.393813 37.905067 11.66336 51.759787-1.457493l0.72704-0.730453c53.21728-53.94432 82.377387-124.658347 82.377387-198.28736-0.733867-79.458987-34.996907-155.272533-96.228694-210.681174z m173.499734-146.520746c-13.85472-13.85472-37.18144-13.85472-51.759787-1.46432-14.578347 13.124267-15.3088 34.266453-1.457493 48.11776l0.72704 0.730453c86.75328 83.104427 135.594667 193.911467 135.594666 309.818027 0 115.182933-47.383893 223.071573-130.48832 304.718506-13.85472 13.851307-12.397227 34.99008 2.184534 48.110934 14.578347 12.393813 37.18144 11.66336 51.029333-1.457494 96.228693-94.040747 150.173013-218.69568 150.173013-351.37536 0-134.8608-56.86272-261.707093-156.002986-357.198506z"  horiz-adv-x="1024" />

    
    <glyph glyph-name="locked-l" unicode="&#59707;" d="M803.052-128H220.945c-53.576 0-97.02 19.272-97.02 73.14V359.613c0 53.855 43.434 97.525 97.02 97.525V603.423C220.945 764.993 351.242 895.997 512 895.997c160.734 0 291.052-130.994 291.052-292.574V457.14c53.585 0 97.024-43.67 97.024-97.526v-414.474c0-53.87-43.439-73.141-97.024-73.141z m-48.5 731.423C754.551 738.086 645.931 847.23 512 847.23c-133.96 0-242.572-109.155-242.572-243.807h0.017V457.14h485.106V603.423z m97.01-243.811c-0.004 26.928-21.72 48.76-48.51 48.77H220.945c-26.791 0-48.503-21.832-48.503-48.763v-414.482c0-26.951 21.705-24.388 48.503-24.388h582.107c26.787 0 48.51-2.563 48.51 24.388V359.612zM536.248 94.863v-76.602c-0.007-13.465-10.857-24.381-24.248-24.391-13.394 0.013-24.245 10.926-24.255 24.391v76.602c-41.762 10.872-72.759 48.685-72.759 94.085 0 53.863 43.435 97.516 97.02 97.516s97.025-43.653 97.025-97.516c-0.01-45.4-31.01-83.213-72.783-94.085zM512 237.715c-26.791 0-48.51-21.832-48.51-48.763-0.004-26.935 21.709-48.783 48.51-48.787 26.798-0.01 48.53 21.818 48.534 48.76 0.01 26.941-21.709 48.78-48.503 48.79H512z"  horiz-adv-x="1024" />

    
    <glyph glyph-name="unlocked-l" unicode="&#59708;" d="M975.484093 603.430034c0 134.657754-108.618085 243.803185-242.543697 243.803185-133.956331 0-242.564176-109.150551-242.564175-243.803185h0.015359v-146.279863h485.092513V603.430034zM441.885913 457.150171V603.430034C441.885913 764.997835 572.176416 896 732.930157 896 893.668538 896 1023.974401 765.008075 1023.974401 603.430034v-146.279863H441.885913z m285.729817-97.528442c0 26.930527-21.718497 48.756541-48.510788 48.771901H97.016455c-26.78717 0-48.500547-21.831134-48.500548-48.761661v-414.468998c0-26.956126 21.703137-24.39107 48.500548-24.39107h582.088487c26.78717 0 48.510787-2.565056 48.510788 24.39107v414.458758z m-315.302198-264.743461v-76.598405c-0.01024-13.465263-10.859249-24.38083-24.247714-24.39107-13.393585 0.01024-24.242594 10.925807-24.252833 24.39107v76.598405c-41.762796 10.874608-72.758501 48.689983-72.758501 94.087888 0 53.861053 43.431874 97.513082 97.021574 97.513082 53.579461 0 97.021574-43.652029 97.021575-97.513082-0.01536-45.397905-31.016185-83.21328-72.784101-94.087888z m-24.247714 142.854669c-26.79229 0-48.510787-21.836254-48.510787-48.761661 0-26.930527 21.708257-48.777021 48.510787-48.782141 26.79741-0.01024 48.531267 21.815775 48.531267 48.756541 0.01024 26.940766-21.708257 48.777021-48.505667 48.787261h-0.0256zM100.487728 457.150171h578.622334c53.5897 0 97.021574-43.667388 97.021575-97.523322v-414.463878c0-53.866173-43.431874-73.137372-97.021575-73.137372H97.016455C43.442114-127.974401 0-108.703202 0-54.837029v414.458758c0 53.855934 43.431874 97.523322 97.016455 97.523322l3.471273 0.00512z"  horiz-adv-x="1024" />

    
    <glyph glyph-name="comment-l" unicode="&#59706;" d="M982.43584 622.58176c-25.94816 53.5552-63.0272 101.6064-110.19264 142.80192-46.976 41.01632-101.62176 73.20064-162.432 95.6672C647.01952 884.23936 580.36224 896 511.69792 896c-68.67456 0-135.3216-11.76064-198.11328-34.95424C252.77952 838.58432 198.13376 806.4 151.15776 765.38368c-47.17568-41.19552-84.2496-89.24672-110.19264-142.80192C14.0032 566.90688 0.3328 507.75552 0.3328 446.7712c0-69.33504 17.50016-135.84384 52.02432-197.6576 27.2896-48.8704 65.18784-93.60896 110.67904-130.93888l8.89856-246.02112 309.12512 126.19776c10.19392-0.53248 20.43904-0.80384 30.63808-0.80384 68.6592 0 135.3216 11.76576 198.10816 34.95936 60.81024 22.45632 115.46624 54.64576 162.432 95.66208 47.17056 41.20064 84.24448 89.2416 110.19264 142.81216 26.9568 55.66976 40.63232 114.81088 40.63232 175.79008 0 60.98432-13.67552 120.13568-40.6272 175.81056zM511.69792 66.66752c-14.54592 0-29.21472 0.60928-43.5968 1.8432l-0.04608-0.50688-0.11776 0.256-226.6624-92.52352-6.36928 176.02048-0.2048-0.01024 0.2304 0.28672C132.26496 224.65024 73.38496 332.0832 73.38496 446.7712c0 209.59744 196.62336 380.11904 438.31296 380.11904 241.6896 0 438.31296-170.5216 438.31296-380.11904 0-209.5872-196.62336-380.10368-438.31296-380.10368zM738.06336 570.59328H299.74528c-20.09088 0-36.52608-15.55456-36.52608-34.56 0-19.00032 16.4352-34.55488 36.52608-34.55488h438.31808c20.08576 0 36.51584 15.55456 36.51584 34.55488 0 19.00544-16.43008 34.56-36.51584 34.56zM665.04192 361.66144h-365.2608c-20.09088 0-36.52608-15.54432-36.52608-34.56 0-19.00544 16.4352-34.54976 36.52608-34.54976h365.25568c20.09088 0 36.5312 15.54432 36.5312 34.54976 0 19.01568-16.44032 34.56-36.52608 34.56z"  horiz-adv-x="1024" />

    
    <glyph glyph-name="comment-s" unicode="&#59705;" d="M512 896C229.18144 896 0 666.81856 0 384c0-141.40928 58.51648-270.62784 151.16288-363.27424C197.48352-25.6 0-128 0-128h512c282.81856 0 512 229.18144 512 512S794.81856 896 512 896zM316.94848 530.28352h268.19072c19.51232 0 36.57728-17.06496 36.57728-36.57216s-17.06496-36.57728-36.57728-36.57728H316.94848c-19.50208 0-36.57216 17.07008-36.57216 36.57728s17.0752 36.57216 36.57216 36.57216z m414.47936-292.56704H316.94848c-19.50208 0-36.57216 17.06496-36.57216 36.57216s17.07008 36.57728 36.57216 36.57728h414.47936c19.50208 0 36.57216-17.07008 36.57216-36.57728s-17.07008-36.57216-36.57216-36.57216z"  horiz-adv-x="1024" />

    
    <glyph glyph-name="player-forward-c-s" unicode="&#59597;" d="M512.768-127.98976c281.920853 0 511.25248 229.48864 511.25248 511.5904 0 282.108587-228.604587 511.5904-511.25248 511.5904C230.85056 895.19104 1.51552 665.709227 1.51552 383.60064c0-282.10176 229.33504-511.5904 511.25248-511.5904zM293.659307 602.856107l388.549973-219.255467V602.856107h49.664v-438.50752h-49.664v219.252053L293.659307 164.345173V602.856107z"  horiz-adv-x="1024" />

    
    <glyph glyph-name="player-start-c-s" unicode="&#59598;" d="M512.341333 896C229.464747 896 0.682667 667.385173 0.682667 384c0-283.392 228.778667-512 511.658666-512 282.876587 0 511.658667 228.608 511.658667 512C1024 667.385173 795.941547 896 512.341333 896z m235.362987-552.89856l-317.228373-184.060587c-27.04384-16.7936-61.39904 3.648853-61.39904 37.246294V561.483093c0 30.675627 34.3552 51.12832 61.39904 37.249707l317.228373-184.05376c27.777707-16.80384 27.777707-58.43968 0-71.5776z"  horiz-adv-x="1024" />

    
    <glyph glyph-name="playing-list-l" unicode="&#59599;" d="M0 490.63936c0 46.742187 33.7408 66.464427 74.082987 43.823787l192.918186-108.096854c41.079467-23.374507 41.079467-60.624213 0-83.995306l-192.918186-108.096854C33.010347 210.899627 0 230.618453 0 278.094507v212.544853z m1024-341.82144c0-23.371093-19.06688-42.359467-42.540373-42.359467h-512c-23.473493 0-42.5472 18.988373-42.5472 42.359467 0 23.374507 19.073707 42.36288 42.5472 42.36288h512c23.473493 0.730453 42.540373-18.991787 42.540373-42.36288z m0 704.822613c0-23.374507-19.06688-42.36288-42.540373-42.36288H42.5472C19.070293 811.277653 0 830.266027 0 853.640533 0 877.011627 19.070293 896 42.5472 896h938.91584C1004.93312 896 1024 877.011627 1024 853.640533z m0-939.27424c0-23.374507-19.06688-42.366293-42.540373-42.366293H42.5472C19.070293-128 0-109.008213 0-85.633707c0 23.371093 19.06688 42.356053 42.543787 42.356054h938.91584c23.473493 0 42.540373-18.98496 42.540373-42.356054z m0 704.085334c0-23.371093-19.06688-42.359467-42.540373-42.359467h-512c-23.473493 0-42.5472 18.988373-42.5472 42.359467 0 23.374507 19.073707 43.093333 42.5472 43.093333h512c23.473493 0 42.540373-19.715413 42.540373-43.093333zM1024 384c0-23.371093-19.06688-42.366293-42.540373-42.366293h-512c-23.473493 0-42.5472 18.991787-42.5472 42.366293 0 23.371093 19.073707 42.36288 42.5472 42.36288h512C1004.93312 426.366293 1024 407.371093 1024 384z"  horiz-adv-x="1024" />

    
    <glyph glyph-name="player-forward-l" unicode="&#59600;" d="M184.316985 885.74668l614.390293-460.79528c22.619426-16.970542 27.203383-49.06166 10.232841-71.677673a51.000371 51.000371 0 0 0-10.232841-10.232841L184.316985-117.754393c-22.612599-16.967129-54.696891-12.393411-71.660606 10.222601a51.157379 51.157379 0 0 0-10.246494 30.736069V844.794836C102.416711 873.066558 125.333087 895.982934 153.611636 895.982934a51.198338 51.198338 0 0 0 30.705349-10.236254z m20.486162-860.142314L682.650886 383.999556 204.803147 742.401573v-716.797207zM819.196853 896H921.586702v-1023.994061h-102.389849V896z"  horiz-adv-x="1024" />

    
    <glyph glyph-name="playing-sequence-l" unicode="&#59601;" d="M720.459093 16.841387H149.940907L204.8-31.173973c10.970453-6.64576 18.285227-16.98816 18.285227-31.0272-3.65568-20.688213-21.94432-33.979733-43.88864-33.979734-10.970453 0-25.6 6.64576-32.914774 14.032214L21.94432 20.54144c-14.629547 14.032213-18.285227 37.67296 0 51.705173l124.340907 106.386774c7.314773 6.64576 21.94432 10.338987 32.914773 10.338986 21.94432 0 40.23296-16.994987 40.23296-37.67296 0-10.345813-7.318187-20.688213-14.629547-27.3408l-47.540906-41.366186h566.859093c128 0 226.74432 96.04096 226.74432 212.759893v92.337493c0 20.688213 14.626133 33.983147 36.56704 33.983147 21.947733 0 36.573867-14.032213 36.573867-33.983147v-93.078186c-0.006827-150.698667-135.318187-277.77024-303.547734-277.77024zM303.54432 751.1552h566.852267l-54.85568 48.018773c-10.970453 6.64576-18.281813 16.991573-18.281814 31.0272 3.65568 20.6848 21.94432 33.979733 43.885227 33.979734 10.973867 0 25.6-6.649173 32.91136-14.035627l124.347733-102.683307c14.629547-14.035627 18.285227-37.679787 0-51.712l-120.68864-105.639253c-7.314773-6.649173-21.937493-10.3424-32.91136-10.3424-21.94432 0-40.229547 16.991573-40.229546 37.676373 0 10.3424 7.314773 20.688213 14.629546 27.333974l47.54432 41.3696H299.88864C175.54432 682.451627 73.147733 586.417493 73.147733 466.742613v-96.034133c0-20.688213-14.629547-33.98656-36.573866-33.98656C14.629547 336.718507 0 350.754133 0 370.705067v92.340906c0 161.04448 135.314773 288.109227 303.54432 288.109227z"  horiz-adv-x="1024" />

    
    <glyph glyph-name="player-back-l" unicode="&#59602;" d="M835.956053-117.61664L228.54656 343.06048c-22.360747 16.96768-26.89024 49.0496-10.110293 71.662933a50.91328 50.91328 0 0 0 10.110293 10.22976L835.956053 885.62688c22.3744 16.954027 54.101333 12.356267 70.864214-10.263893a51.531093 51.531093 0 0 0 10.110293-30.682454v-921.350826c0-28.265813-22.66112-51.176107-50.609493-51.176107a50.261333 50.261333 0 0 0-30.365014 10.22976z m-20.247893 859.921067L343.289173 384l472.415574-358.311253V742.304427zM208.295253-127.870293H107.066027V895.863467h101.229226v-1023.73376z"  horiz-adv-x="1024" />

    
    <glyph glyph-name="playing-random-l" unicode="&#59603;" d="M47.824213 109.43488c-24.050347 0-43.728213 20.2752-43.728213 44.905813 0 24.6272 19.677867 44.909227 43.728213 44.909227h112.233814c59.037013 0 128.27648 79.67744 198.970026 173.841067l12.3904-17.380694 41.540267-56.500906c-80.16896-104.311467-161.795413-190.50496-252.900693-190.50496 0.733867 0.730453-112.233813 0.730453-112.233814 0.730453zM1015.691947 646.894933l-71.424-73.885013-71.424-73.8816c-10.205867-10.141013-26.238293-10.141013-37.174614 0-5.82656 5.792427-8.011093 13.76256-7.287466 21.005653V621.540693h-106.40384c-59.037013 0-127.542613-79.67744-198.966614-173.84448l-12.386986 17.384107-41.547094 56.500907c80.899413 104.30464 162.52928 190.501547 253.627734 190.501546h106.407253V814.216533c0 14.4896 11.659947 26.801493 26.238293 26.801494 7.287467 0 13.851307-3.621547 18.220374-7.96672L944.9984 758.442667l71.424-73.8816c8.741547-10.144427 8.741547-27.528533-0.730453-37.666134z m0-511.389013c10.205867 10.86464 10.205867 27.521707 0 37.66272l-71.424 73.885013-71.424 73.885014c-4.37248 5.0688-11.66336 7.963307-18.220374 7.963306-13.851307 0-26.241707-12.311893-26.241706-26.801493v-102.853973h-106.40384c-72.157867 0-158.88384 118.790827-246.340267 237.581653-100.57728 136.89856-199.70048 273.800533-314.84928 273.800533H47.824213C23.773867 710.632107 4.096 690.353493 4.096 665.726293S23.773867 620.817067 47.824213 620.817067h112.233814c72.15104 0 159.61088-118.790827 246.34368-237.581654 99.846827-136.901973 200.424107-273.076907 314.845866-273.076906h106.410667v-101.40672c-0.733867-7.96672 2.184533-15.209813 7.287467-21.00224 10.202453-10.868053 26.965333-10.868053 37.1712 0l71.424 74.605226 72.15104 73.151147z"  horiz-adv-x="1024" />

    
    <glyph glyph-name="player-start-s" unicode="&#59604;" d="M832.436907 502.96832c97.778347-65.792 97.778347-173.09696 0-238.882133L295.7824-96.208213c-97.77152-65.795413-177.165653-22.719147-177.165653 95.552853V768.49152c0 119.05024 79.397547 161.35168 177.165653 95.556267l536.654507-361.079467z"  horiz-adv-x="1024" />

    
    <glyph glyph-name="plus-s" unicode="&#59605;" d="M513.135845 896C230.412791 896 0.426368 668.790087 0.426368 388.758269c0-280.031818 229.25307-507.245142 512.709477-507.245142 283.456407 0 512.709477 227.213324 512.709477 507.245142C1025.841911 668.790087 795.852077 896 513.135845 896z m269.536338-573.813157h-202.156517v-199.71428c0-36.89961-30.033377-66.571427-67.383232-66.571427-37.356677 0-67.383232 29.668405-67.383232 66.571427v199.71428H243.596096c-37.356677 0-67.383232 29.661584-67.383232 66.571426 0 36.903021 30.029966 66.571427 67.383232 66.571427h202.153106V655.043976c0 36.903021 30.026555 66.571427 67.383232 66.571427 37.349855 0 67.383232-29.668405 67.383232-66.571427v-199.71428h202.156517c37.349855 0 67.383232-29.664995 67.383232-66.571427s-30.033377-66.571427-67.383232-66.571426z"  horiz-adv-x="1026" />

    
    <glyph glyph-name="plus-l" unicode="&#59606;" d="M964.778667 443.774293H574.037333V833.78176c0 35.720533-24.05376 59.777707-59.777706 59.777707-35.71712 0-59.774293-24.057173-59.774294-59.777707v-390.007467H63.020373C27.296427 443.774293 3.242667 419.720533 3.242667 384s24.05376-59.777707 59.777706-59.777707h390.734507v-390.007466c0-35.723947 24.057173-59.777707 59.78112-59.777707 35.71712 0 59.774293 24.05376 59.774293 59.777707v390.007466h390.734507c35.723947 0 59.784533 24.057173 59.784533 59.777707 0.720213 35.720533-23.333547 59.774293-59.050666 59.774293z"  horiz-adv-x="1024" />

    
    <glyph glyph-name="sharing-l" unicode="&#59607;" d="M982.59968 420.355413c-20.411733 0-36.447573-16.039253-36.447573-36.447573v-361.547093c0-19.68128-16.039253-36.447573-36.447574-36.447574H109.339307c-20.411733 0-36.447573 16.03584-36.447574 36.447574V636.84608c0 19.684693 16.03584 36.447573 36.447574 36.447573h254.39232c20.411733 0 36.447573 16.039253 36.447573 36.447574 0 20.411733-16.03584 36.447573-36.447573 36.447573-1.457493 0-2.187947-0.72704-2.914987-0.72704H109.339307C48.837973 745.458347 0 696.620373 0 636.84608v-614.485333c0-59.77088 48.837973-108.612267 109.339307-108.612267h800.365226c60.494507 0 109.339307 48.8448 109.339307 108.612267V384.638293h-0.733867c0.73728 19.677867-16.029013 35.71712-35.710293 35.71712z m-597.722453-158.90432a33.87392 33.87392 0 0 1-3.642027-15.3088c0-19.68128 16.03584-36.447573 36.44416-36.447573 17.493333 0 31.341227 12.3904 34.986667 29.156693h0.730453c42.277547 214.306133 220.86656 379.77088 441.73312 404.555094l-77.267627-76.537174c-14.578347-13.851307-14.578347-37.174613 0-51.02592a37.420373 37.420373 0 0 1 51.75296 0l139.219627 138.496c14.578347 13.851307 14.578347 37.174613 0 51.02592L869.614933 843.861333a37.420373 37.420373 0 0 1-51.75296 0c-14.578347-13.851307-14.578347-37.174613 0-51.02592l76.53376-76.537173c-252.934827-24.784213-457.76896-211.387733-509.518506-454.847147z"  horiz-adv-x="1024" />

    
    <glyph glyph-name="playing-word-l" unicode="&#59608;" d="M974.209707 325.474987H51.104427c-28.747093 0-51.104427 25.1904-51.104427 56.302933s22.35392 56.302933 51.104427 56.302933h922.30656c28.747093 0 51.104427-25.186987 51.104426-56.302933s-22.360747-56.302933-50.305706-56.302933zM226.781867 14.339413h572.54912c26.350933 0 47.909547-24.446293 47.909546-55.558826s-20.75648-55.558827-47.909546-55.558827H226.781867c-26.354347 0-47.91296 24.446293-47.91296 55.558827s20.763307 55.558827 47.91296 55.558826z m0 850.438827h572.54912c26.350933 0 47.909547-24.446293 47.909546-55.558827 0-31.112533-20.75648-55.558827-47.909546-55.558826H226.781867c-26.354347 0-47.91296 24.449707-47.91296 55.558826S199.632213 864.77824 226.781867 864.77824z"  horiz-adv-x="1024" />

    
    <glyph glyph-name="player-pause-c-s" unicode="&#59609;" d="M511.771307 896C228.83328 896 0 667.845973 0 385.024c0-282.825387 228.83328-510.972587 511.771307-510.972587 282.934613 0 511.771307 228.1472 511.771306 510.972587C1023.542613 667.845973 795.43296 896 511.771307 896z m-122.094934-791.61344c0-4.37248-4.386133-7.29088-10.236586-7.29088H299.75552c-5.850453 0-10.24 3.64544-10.24 7.29088V662.012587c0 4.375893 4.389547 7.29088 10.24 7.29088h79.684267c5.12 0 9.506133-2.914987 10.236586-6.560427v-558.35648z m349.467307 0c0-4.37248-4.38272-7.29088-10.236587-7.29088h-79.694506c-5.84704 0-10.22976 3.64544-10.22976 7.29088V662.012587c0 4.375893 4.38272 7.29088 10.22976 7.29088h79.694506c5.116587 0 9.506133-2.914987 10.236587-6.560427v-558.35648z"  horiz-adv-x="1024" />

    
    <glyph glyph-name="rank-s" unicode="&#59610;" d="M177.821013-128H0V384h177.821013v-512zM1024 554.980693h-177.821013V-128H1024V554.980693zM600.910507 896h-177.821014v-1024h177.821014V896z"  horiz-adv-x="1024" />

    
    <glyph glyph-name="question-s" unicode="&#59611;" d="M511.998294 896C229.513182 896 0.453772 666.66082 0.453772 384.001706S229.513182-128 511.998294-128C794.486818-128 1023.546228 101.346003 1023.546228 384.001706S794.486818 896 511.998294 896z m32.204176-763.978316c-10.24911-9.495097-23.42215-15.342958-38.05886-14.609417-13.906581 0-27.806339 5.114319-38.055449 15.342958-10.242286 9.488274-15.363429 23.36756-15.363429 37.246847-0.733541 13.875875 5.121143 27.75175 15.363429 37.246848 10.24911 10.225227 23.418738 15.332722 38.055449 14.612828 14.636711 0.719894 28.543292-5.117731 38.78899-14.612828 10.24911-9.495097 16.09697-23.370972 15.366841-37.246848 0-14.612828-5.854684-28.488703-16.096971-37.980388z m105.380908 285.576221c-19.757854-20.447042-40.249249-39.440648-62.204316-56.963759-12.439498-10.23205-23.415326-23.374384-30.737093-37.983801-8.051897-14.606005-12.439498-31.40581-11.709369-48.205615v-12.419028h-76.844439v12.419028c-0.726718 24.104514 4.394425 48.205616 14.636711 69.382786 21.955067 35.05987 49.764818 65.738962 81.96217 92.033865l12.44291 13.875875c12.44291 14.609416 19.761266 33.596199 20.487984 53.316523 0 21.180583-8.778615 41.634449-23.415326 56.967172-16.833924 15.336134-39.515708 23.374384-62.204316 21.910713-27.809751 2.193801-54.155831-9.495097-70.986343-31.40581-14.636711-21.910713-21.221525-48.209027-19.757854-74.500519h-75.380768c-2.197213 46.015227 14.636711 90.566782 46.103934 124.166393 34.397977 32.139352 80.505323 48.939157 127.339387 46.748768 41.712921 3.650648 83.432665-8.764968 116.356735-35.05987 30.003552-26.294903 46.103934-65.002009 43.913545-105.172786a138.161682 138.161682 0 0 0-30.003552-89.109935z"  horiz-adv-x="1024" />

    
    <glyph glyph-name="player-pause-s" unicode="&#59612;" d="M238.832805 895.993177H143.754791c-32.18508 0-58.509022-26.327354-58.509022-59.239106v-903.979743c0-32.90834 26.323943-59.235694 58.509022-59.235694H238.832805c32.178256 0 58.509022 26.327354 58.509022 59.235694V836.754071C297.345238 869.665823 271.014473 895.993177 238.832805 895.993177z m636.294997 0H780.049788c-32.181668 0-58.50561-26.327354-58.50561-59.239106v-903.979743c0-32.90834 26.327354-59.235694 58.50561-59.235694h95.078014c32.181668 0 58.509022 26.327354 58.509022 59.235694V836.754071c0 32.911751-26.330766 59.239106-58.509022 59.239106z"  horiz-adv-x="1024" />

    
    <glyph glyph-name="qq-s" unicode="&#59613;" d="M61.184 304.981333C22.975147 215.022933 16.769707 129.204907 47.445333 113.165653c21.159253-11.035307 54.330027 14.107307 85.377707 60.286294 12.291413-50.305707 42.71104-95.863467 86.162773-132.399787-45.57824-16.831147-75.34592-44.29824-75.34592-75.461973 0-51.213653 80.554667-92.6208 179.974827-92.6208 89.67168 0 163.938987 33.655467 177.64352 77.899093 3.682987 0.06144 17.84832 0.06144 21.42208 0 13.759147-44.182187 88.081067-77.899093 177.701547-77.899093 99.42016 0 179.971413 41.468587 179.971413 92.6208 0 31.09888-29.73696 58.630827-75.339093 75.461973 43.390293 36.58752 73.919147 82.09408 86.1696 132.399787 31.051093-46.178987 64.13312-71.325013 85.312853-60.286294 30.706347 16.039253 24.644267 101.90848-13.714773 191.812267-30.02368 70.69696-70.754987 122.75712-101.90848 134.25664 0.464213 4.47488 0.682667 9.058987 0.682666 13.591893 0 27.306667-7.591253 52.565333-20.56192 73.13408 0.221867 1.5872 0.221867 3.232427 0.221867 4.819627 0 12.571307-3.003733 24.36096-8.103253 34.56C825.2416 749.1072 705.594027 895.030613 511.996587 895.030613c-193.706667 0-313.40544-145.92-321.194667-329.690453a76.827307 76.827307 0 0 1-8.127147-34.56c0-1.5872 0.116053-3.2256 0.167254-4.819627-12.86144-20.558507-20.452693-45.769387-20.452694-73.13408 0-4.532907 0.170667-9.058987 0.570027-13.591893-30.931627-11.49952-71.806293-63.614293-101.77536-134.253227z"  horiz-adv-x="1024" />

    
    <glyph glyph-name="shopping-l" unicode="&#59614;" d="M787.841707 172.885333H360.16128c-94.102187 0-116.7872 59.753813-133.376 126.334294L102.253227 826.97216H64.006827c-18.343253 0.273067-32.996693 15.36-32.7168 33.703253A33.211733 33.211733 0 0 0 64.006827 893.395627h64.54272a33.21856 33.21856 0 0 0 32.314026-25.58976l130.471254-552.922454c17.36704-69.700267 31.04768-75.59168 68.829866-75.59168h427.66336c12.67712 0 51.22048 0 68.829867 75.48928l62.96576 250.9312c9.96352 39.65952 8.64256 70.406827-3.74784 86.603094-9.383253 12.240213-27.194027 18.701653-52.97152 19.1488H345.248427c-18.333013-0.003413-33.19808 14.854827-33.19808 33.18784V704.682667c-0.01024 18.333013 14.848 33.201493 33.174186 33.20832h518.30784c47.633067-0.86016 82.793813-16.069973 105.076054-45.2096 25.69216-33.563307 30.870187-81.722027 15.44192-143.148374l-62.849707-250.34752c-25.562453-109.84448-94.539093-126.30016-133.358933-126.30016zM296.30464-125.395627c-68.512427 0-124.238507 55.749973-124.238507 124.238507 0 68.48512 55.73632 124.23168 124.238507 124.23168s124.25216-55.74656 124.25216-124.23168c0-68.488533-55.749973-124.238507-124.25216-124.238507z m0 182.070614c-31.873707 0-57.821867-25.954987-57.821867-57.832107 0-31.883947 25.94816-57.83552 57.821867-57.83552 31.88736 0 57.828693 25.954987 57.828693 57.83552s-25.941333 57.832107-57.828693 57.832107z m528.954027-182.070614c-68.491947 0-124.24192 55.749973-124.24192 124.238507 0 68.48512 55.7568 124.23168 124.24192 124.23168 68.488533 0 124.248747-55.74656 124.248746-124.23168 0-68.488533-55.749973-124.238507-124.248746-124.238507z m0 182.070614c-31.87712 0-57.818453-25.954987-57.818454-57.832107 0-31.883947 25.944747-57.83552 57.818454-57.83552 31.880533 0 57.821867 25.954987 57.821866 57.83552s-25.934507 57.832107-57.821866 57.832107z"  horiz-adv-x="1024" />

    
    <glyph glyph-name="rank-l" unicode="&#59615;" d="M557.540693 35.505493h-95.24224c-54.213973 0-97.440427 43.56096-98.17088 96.5632V748.465493c0 53.725867 43.956907 97.286827 98.17088 97.286827h95.24224c54.21056 0 98.17088-43.56096 98.17088-97.286827v-615.673173c-0.003413-53.725867-43.963733-97.286827-98.17088-97.286827zM462.298453 781.13792c-18.315947 0-32.969387-14.52032-32.969386-32.669013v-615.673174c0-17.421653 14.650027-31.941973 32.232106-31.941973h95.976107c17.578667 0 32.232107 13.79328 32.965973 31.941973V748.465493c0 18.148693-14.65344 31.945387-32.965973 32.669014h-95.238827zM193.42336 35.505493H98.18112c-54.217387 0-97.437013 43.56096-98.174293 96.5632v169.885014c0 53.72928 43.956907 97.29024 98.174293 97.29024h95.24224c54.21056 0 98.17088-43.56096 98.17088-97.29024v-173.5168c-2.198187-51.54816-45.421227-92.931413-98.17088-92.931414zM98.18112 338.261333c-18.315947 0-32.969387-14.52032-32.969387-32.672426v-173.5168c0-17.425067 14.65344-31.9488 32.232107-31.9488H193.419947c17.58208 0 32.23552 13.800107 32.969386 31.218346v170.615467c0 18.152107-14.650027 32.672427-32.969386 32.672427L98.18112 338.261333z m827.869867-302.75584h-95.238827c-54.2208 0-97.440427 43.56096-98.174293 96.5632v319.450454c0 53.725867 43.953493 97.286827 98.174293 97.286826h95.238827c54.21056 0 98.17088-43.56096 98.17088-97.286826v-319.450454c-0.003413-53.00224-43.963733-96.5632-98.17088-96.5632z m-95.24224 449.41312c-17.585493 0-32.238933-14.52032-32.969387-32.672426v-319.453867c0-17.421653 14.65344-31.941973 32.969387-31.941973h95.238826c17.578667 0 32.232107 13.79328 32.965974 31.218346v320.177494c0 18.152107-14.65344 32.672427-32.965974 32.672426h-95.238826z m160.44032-562.674346H32.976213c-18.315947 0-32.969387 14.52032-32.969386 32.672426 0 18.148693 14.650027 32.669013 32.969386 32.669014h959.00672c18.312533 0 32.965973-14.52032 32.965974-32.669014-0.730453-18.152107-15.383893-32.672427-33.69984-32.672426z"  horiz-adv-x="1024" />

    
    <glyph glyph-name="smile-l" unicode="&#59616;" d="M512-123.736886C230.116077-123.736886 2.131557 104.247634 2.131557 386.131557S230.116077 896 512 896c281.880513 0 509.868443-227.98452 509.868443-509.868443s-227.981109-509.868443-509.868443-509.868443z m0 64.751587c245.838441 0 445.113445 199.278415 445.113445 445.116856 0 245.841852-199.275004 445.110035-445.113445 445.110035-245.841852 0-445.113445-199.268183-445.113445-445.110035 0.00341-245.838441 199.275004-445.116856 445.113445-445.116856zM690.453955 437.118401c-42.252576 0-76.483677 34.234511-76.483677 76.480267s34.231101 76.480266 76.483677 76.480266c42.249166 0 76.480266-34.234511 76.480266-76.480266S732.703121 437.118401 690.453955 437.118401z m-356.90791 0c-42.245755 0-76.480266 34.234511-76.480266 76.480267S291.30029 590.078934 333.546045 590.078934c42.249166 0 76.480266-34.234511 76.480266-76.480266S375.795211 437.118401 333.546045 437.118401zM512 182.18418c75.750421 0 139.850604 41.51591 175.537985 101.970278h85.224766c-56.088939-144.219444-218.513585-215.607847-362.73644-159.512087-72.834451 28.405982-131.106105 85.940969-159.515497 159.512087h85.221356c36.420636-60.454368 100.513998-101.970278 176.26783-101.970278z"  horiz-adv-x="1024" />

    
    <glyph glyph-name="power-switch-l" unicode="&#59617;" d="M567.9616 896h-111.9232v-564.25472h111.9232V896z m270.57152-122.166613l-79.17568-79.848107c87.855787-72.506027 144.377173-182.248107 144.377173-305.82784 0-218.074453-175.44192-394.984107-391.744853-394.984107S120.24832 170.072747 120.24832 388.15744c0 123.56608 56.528213 233.321813 144.380587 305.82784L185.460053 773.833387C77.44512 680.731307 8.338773 542.764373 8.338773 388.16768c0-280.44288 225.532587-507.835733 503.671467-507.835733 278.132053 0 503.668053 227.392853 503.668053 507.835733-0.01024 154.606933-69.12 292.563627-177.145173 385.665707z"  horiz-adv-x="1024" />

    
    <glyph glyph-name="smile-s" unicode="&#59618;" d="M512 896C230.116077 896 2.131557 668.01548 2.131557 386.131557s227.98452-509.868443 509.868443-509.868443 509.868443 227.98452 509.868443 509.868443S793.887334 896 512 896z m178.453955-305.921066c42.249166 0 76.480266-34.234511 76.480266-76.480266S732.703121 437.118401 690.453955 437.118401 613.973689 471.352913 613.973689 513.598668s34.234511 76.480266 76.480266 76.480266z m-356.90791 0c42.249166 0 76.480266-34.234511 76.480266-76.480266S375.795211 437.118401 333.546045 437.118401c-42.245755 0-76.480266 34.234511-76.480266 76.480267S291.30029 590.078934 333.546045 590.078934zM410.026311 124.642371c-72.837862 28.405982-131.109515 85.94438-159.518907 159.512087h85.224766c35.687381-60.457779 100.513998-101.970278 175.537985-101.970278 75.027397 0 139.847194 41.51591 175.541395 101.970278h85.221356c-55.359094-144.219444-217.78374-215.601026-362.006595-159.512087z"  horiz-adv-x="1024" />

    
    <glyph glyph-name="player-start-c-l" unicode="&#59619;" d="M512-127.996587C229.23264-127.996587 0.003413 101.229227 0.003413 384S229.23264 895.996587 512 895.996587 1024.003413 666.770773 1024.003413 384 794.76736-127.996587 512-127.996587z m0 73.14432c242.387627 0 438.862507 196.481707 438.862507 438.852267 0 242.37056-196.47488 438.852267-438.862507 438.852267-242.367147 0-438.852267-196.47488-438.852267-438.852267 0-242.377387 196.481707-438.852267 438.852267-438.852267z m153.736533 376.56576l-232.830293-143.387306c-17.21344-10.58816-39.748267-5.208747-50.3296 12.00128a36.519253 36.519253 0 0 0-5.420373 19.141973V558.523733c-0.003413 20.196693 16.366933 36.573867 36.56704 36.57728 6.772053 0 13.4144-1.880747 19.182933-5.430613l232.830293-143.387307c34.399573-21.183147 45.110613-66.235733 23.917227-100.62848a73.178453 73.178453 0 0 0-23.917227-23.94112z"  horiz-adv-x="1024" />

    
    <glyph glyph-name="video-l" unicode="&#59620;" d="M610.9184 431.438507H34.225493c-17.472853 0-32.037547-14.564693-32.037546-32.04096v-364.803414c0-17.472853 14.564693-32.037547 32.037546-32.037546H610.9184c17.47968 0 32.044373 14.564693 32.044373 32.037546v365.533867c-0.730453 17.476267-14.564693 31.310507-32.044373 31.310507z m-32.037547-364.803414H65.536v301.451947h512.6144v-301.451947h0.730453z m430.339414 299.997867c-8.014507 5.82656-17.47968 8.011093-26.948267 5.82656l-257.03424-63.348053c-14.564693-3.642027-24.029867-16.022187-24.029867-30.58688v-123.057494c0-14.564693 10.192213-27.66848 24.756907-30.580053l257.037653-61.166933c2.187947-0.72704 5.096107-0.72704 7.28064-0.72704 7.284053 0 13.83424 2.187947 19.6608 6.5536 8.014507 5.823147 12.376747 15.291733 12.376747 24.76032v248.292693c-0.723627 8.741547-5.092693 18.20672-13.100373 24.03328z m-50.971307-233.007787l-192.955733 45.871787V252.3136l192.955733 48.052907v-166.741334zM139.80672 498.428587c66.986667 0 121.6 53.15584 121.6 117.961386 0 64.802133-54.613333 117.957973-121.6 117.957974S18.20672 681.192107 18.20672 616.389973c0-64.805547 54.613333-117.961387 121.6-117.961386z m0 172.571306c32.04096 0 58.251947-24.756907 58.251947-54.60992 0-29.856427-26.210987-54.613333-58.251947-54.613333-32.037547 0-58.251947 24.029867-58.251947 54.613333 0 29.853013 26.2144 54.60992 58.251947 54.60992zM474.03008 830.464c-94.65856 0-171.844267-74.27072-171.844267-166.017707s77.185707-166.017707 171.844267-166.017706 171.840853 74.27072 171.840853 166.017706c0 91.019947-77.17888 166.017707-171.840853 166.017707z m0-268.68736c-59.712853 0-108.496213 45.871787-108.496213 102.669653 0 56.067413 48.78336 102.669653 108.496213 102.669654 59.706027 0 108.4928-45.871787 108.4928-102.669654s-48.786773-102.669653-108.4928-102.669653z"  horiz-adv-x="1024" />

    
    <glyph glyph-name="warn-l" unicode="&#59621;" d="M512 891.839147C232.686933 891.839147 4.160853 663.313067 4.160853 384S232.686933-123.839147 512-123.839147 1019.839147 104.686933 1019.839147 384 791.313067 891.839147 512 891.839147z m0-952.20736c-244.394667 0-444.3648 199.970133-444.3648 444.368213C67.6352 628.394667 267.605333 828.3648 512 828.3648S956.368213 628.394667 956.368213 384c0-244.39808-199.973547-444.368213-444.368213-444.368213z m-63.481173 158.70976c0.006827-35.06176 28.43648-63.481173 63.49824-63.47776 35.06176 0.006827 63.47776 28.433067 63.474346 63.49824-0.01024 35.058347-28.43648 63.481173-63.49824 63.481173-35.065173-0.013653-63.481173-28.439893-63.474346-63.501653z m104.741546 126.95552H470.7328l-22.217387 507.845973h126.962347l-22.217387-507.845973z"  horiz-adv-x="1024" />

    
    <glyph glyph-name="thumb-s" unicode="&#59622;" d="M950.524587 485.481813h-280.050347C779.14112 875.659947 595.357013 895.348053 595.357013 895.348053c-78.035627 0-61.989547-59.8016-67.826346-70.014293 0-190.347947-208.57856-339.851947-208.57856-339.851947v-540.412586c0-53.241173 75.12064-72.92928 104.290986-72.92928h421.533014c39.38304 0 72.20224 101.369173 72.20224 101.369173C1021.269333 317.740373 1021.269333 420.573867 1021.269333 420.573867c0 70.741333-70.744747 64.907947-70.744746 64.907946z m-746.069334 0H36.713813C1.706667 485.481813 1.706667 452.662613 1.706667 452.662613l35.007146-545.51552c0-35.007147 35.734187-35.007147 35.734187-35.007146h145.128107c30.634667 0 29.904213 22.606507 29.904213 22.606506V443.910827c0 42.298027-43.025067 41.570987-43.025067 41.570986z"  horiz-adv-x="1024" />

    
    <glyph glyph-name="skin-l" unicode="&#59623;" d="M1003.839147 673.693013L834.55488 871.816533c-13.134507 15.967573-29.917867 23.95136-48.882347 23.95136h-42.32192c-23.3472 0-43.779413-13.789867-56.91392-37.014186-35.0208-60.95872-100.693333-100.1472-176.575146-100.1472-75.885227 0-140.823893 41.362773-176.57856 100.1472C323.79392 881.2544 302.634667 895.040853 280.741547 895.040853H243.525973c-23.350613 0-40.133973-7.983787-51.810986-23.95136L20.246187 672.965973c-26.996053-31.204693-26.996053-80.554667 0-110.308693l99.23584-116.118187c11.6736-13.789867 28.45696-21.77024 43.779413-21.77024 15.31904 0 32.1024 7.983787 43.782827 21.77024h1.45408c1.460907 0 1.460907 0 1.460906-2.18112v-414.385493c0-86.36416 60.55936-157.4912 134.263467-157.4912h335.64672c73.693867 0 134.25664 71.12704 134.25664 157.4912V445.088427c0 2.177707 0 2.177707 1.460907 2.177706h1.460906c11.6736-13.789867 28.45696-21.77024 43.779414-21.77024 16.78336 0 32.105813 7.980373 43.779413 21.77024l99.23584 116.114774c26.99264 31.208107 26.99264 80.554667-0.003413 110.312106z m-147.708587-201.15456c-13.356373 14.68416-35.836587 19.69152-52.729173 17.288534-28.39552-4.037973-35.925333-21.824853-35.925334-69.737814l-0.79872-404.155733c0-46.370133-43.64288-103.31136-81.483093-103.31136H341.420373c-37.840213 0-86.920533 59.4432-86.920533 105.035093l0.41984 412.368214c-1.467733 28.132693-7.3728 61.812053-46.486187 62.67904-17.066667 0.375467-32.887467-8.81664-44.762453-21.179734L41.111893 617.198933l191.20128 227.519147h43.035307l1.481387-2.317653c47.489707-87.32672 138.01472-133.56032 235.216213-133.56032 97.19808 0 187.716267 43.144533 235.209387 133.56032 0 2.317653 1.481387 2.317653 1.481386 2.317653h41.557334l193.471146-224.06144-127.634773-148.118187z"  horiz-adv-x="1024" />

    
    <glyph glyph-name="small-l" unicode="&#59624;" d="M0-59.450027h1024V-128H0v68.549973z"  horiz-adv-x="1024" />

    
    <glyph glyph-name="arrow-left-l" unicode="&#59625;" d="M183.931409 383.330132L693.353948 892.756072a17181.761511 17181.761511 0 0 1 76.460136-82.193116c-141.457712-140.495414-284.819616-281.949725-428.184921-425.311629 147.190692-146.231795 291.508092-289.597099 437.739887-435.832294-34.408081-31.538191-61.165388-56.387905-84.107509-77.419033A128536.186647 128536.186647 0 0 1 183.931409 383.330132z"  horiz-adv-x="1024" />

    
    <glyph glyph-name="vip-l" unicode="&#59626;" d="M1009.657958 610.31424L829.218918 824.183467a84.16256 84.16256 0 0 1-64.413013 29.914453H264.636518a84.159147 84.159147 0 0 1-64.426666-29.92128L19.791292 610.331307c-25.688747-30.43328-26.44992-75.219627-1.81248-106.509654l465.810773-591.59552a37.894827 37.894827 0 0 1 7.693653-8.174933 37.430613 37.430613 0 0 1 23.200427-8.0384 37.45792 37.45792 0 0 1 29.528747 14.339413l467.254613 593.483094c24.623787 31.269547 23.876267 76.045653-1.809067 106.478933z m-57.207466-60.030293l-437.7088-555.963734L76.995345 550.283947a9.181867 9.181867 0 0 0 0.197973 11.60192l180.43904 213.87264a9.147733 9.147733 0 0 0 7.0144 3.242666H764.816145c2.717013 0 5.287253-1.194667 7.017813-3.252906l180.425387-213.855574c2.788693-3.324587 2.884267-8.209067 0.191147-11.608746z m-264.413867 182.53824l-104.91904-14.322347c-35.058347-6.130347-60.63104-36.590933-60.59008-72.185173v-197.64224c-29.05088 9.171627-61.96224 8.697173-93.218133-2.798934-68.990293-25.429333-108.694187-94.716587-88.477014-154.436266 8.936107-26.4192 28.439893-47.94368 54.981974-60.627627 17.268053-8.246613 36.666027-12.417707 56.63744-12.417707 17.476267 0 35.40992 3.181227 52.718933 9.567574 61.965653 22.828373 99.877547 80.954027 92.450133 135.79264V644.706987l100.553387 13.694293c20.558507 2.720427 35.024213 21.592747 32.3072 42.15808-2.72384 20.56192-21.59616 35.0208-42.15808 32.300373l-0.28672-0.037546z m-208.82432-434.384214c-17.95072-6.62528-37.014187-6.560427-50.998613 0.129707-5.720747 2.74432-13.161813 7.888213-16.226987 16.93696-7.04512 20.811093 13.172053 48.80384 43.298133 59.890347a78.1824 78.1824 0 0 0 26.835627 4.939093c8.833707 0 17.16224-1.686187 24.20736-5.061973 5.707093-2.73408 13.13792-7.877973 16.19968-16.9472 0.303787-0.88064 0.279893-1.839787 0.474453-2.740907 0.18432-1.553067 0.423253-3.065173 0.781654-4.539733 0.98304-19.64032-17.841493-42.76224-44.571307-52.606294z"  horiz-adv-x="1029" />

    
    <glyph glyph-name="warn-s" unicode="&#59627;" d="M512.003413 894.245547C230.20544 894.245547 1.754453 665.801387 1.754453 384c0-281.801387 228.450987-510.23872 510.24896-510.23872 281.791147 0 510.23872 228.447573 510.23872 510.23872C1022.242133 665.79456 793.79456 894.245547 512.003413 894.245547z m0-856.487254c-22.654293-0.003413-41.02144 18.35008-41.03168 41.004374-0.01024 22.647467 18.35008 41.018027 41.004374 41.028266 22.65088 0.006827 41.02144-18.35008 41.028266-41.00096v-0.023893c-0.01024-22.647467-18.356907-41.00096-41.00096-41.007787z m59.026774 628.640427l-18.029227-423.632213c-0.300373-22.647467-18.90304-40.7552-41.550507-40.461654-22.2208 0.300373-40.16128 18.240853-40.45824 40.461654l-18.029226 423.632213c-2.614613 32.60416 21.69856 61.156693 54.306133 63.771307 32.600747 2.6112 61.15328-21.69856 63.76448-54.306134 0.13312-1.614507 0.197973-3.232427 0.191147-4.850346 0-1.559893-0.085333-3.099307-0.19456-4.614827z"  horiz-adv-x="1024" />

    
    <glyph glyph-name="setting-s" unicode="&#59628;" d="M509.771093 570.975573c-101.67296 0-184.859307-84.62336-184.859306-188.245333 0-103.49568 83.186347-188.245333 184.859306-188.245333 101.655893 0 184.845653 84.619947 184.845654 188.245333 0 103.621973-83.18976 188.245333-184.845654 188.245333zM361.857707 876.864853c18.479787 0 39.24992-7.062187 50.834773-18.87232 13.878613-16.438613 62.4128-58.81856 99.375787-58.81856 36.952747 0 85.476693 42.37312 99.36896 56.497494 11.584853 14.1312 32.354987 21.193387 50.814293 21.193386 11.598507 0 18.4832 0 27.787947-4.747946h2.290346l127.010134-72.942934h2.300586c25.361067-18.87232 34.65216-54.060373 23.063894-82.31936 0 0-11.605333-25.934507-11.605334-49.431893 0-70.628693 55.432533-127.003307 124.736854-127.003307h4.58752c23.07072 0 41.540267-21.18656 48.54784-54.063786 2.286933-2.317653 11.578027-58.811733 11.578026-103.502507 0-47.005013-11.578027-103.50592-11.578026-103.50592-4.594347-32.884053-25.37472-54.0672-48.54784-54.0672h-4.58752c-69.30432 0-124.736853-56.507733-124.736854-127.00672 0-23.504213 11.605333-49.435307 11.605334-49.435307 11.59168-28.248747 2.290347-61.1328-23.063894-80.001706h-2.300586L692.329813-104.106667h-2.290346c-6.877867-2.31424-16.186027-4.75136-25.367894-4.75136-20.783787 0-41.536853 9.373013-53.128533 23.504214-13.868373 16.428373-64.70656 61.12256-101.65248 61.12256-34.655573 0-80.896-42.369707-99.372373-61.12256-11.584853-14.1312-30.057813-23.504213-50.824534-23.504214-11.588267 0-18.476373 0-27.767466 4.75136h-2.29376l-124.716374 70.618454h-2.31424c-25.582933 18.75968-34.768213 54.074027-23.292586 82.19648 0 0 11.588267 25.944747 11.588266 49.43872 0 70.61504-55.412053 127.003307-124.7232 127.003306h-4.58752c-23.063893 0-41.53344 21.18656-48.5376 54.070614-2.29376 2.317653-11.588267 58.801493-11.588266 103.492266 0 42.38336 9.284267 98.75456 11.588266 103.509334 4.590933 32.877227 25.361067 54.063787 48.5376 54.063786h2.297174c69.300907 0 124.7232 56.500907 124.7232 127.003307 0 23.497387-11.588267 49.431893-11.588267 49.431893-11.588267 28.255573-2.29376 61.136213 23.06048 80.00512h2.300587l131.720533 75.250347h2.290347c6.997333 2.563413 16.29184 4.887893 25.46688 4.887893z"  horiz-adv-x="1024" />

    
    <glyph glyph-name="woman-l" unicode="&#59629;" d="M675.59424 894.8992c-189.09696 0-342.35904-147.26656-342.35904-328.91392 0-83.30752 32.24064-159.40096 85.4272-217.29792l-111.6416-109.84448-168.02304 165.46816-67.18976-66.11456 168.03328-165.34528L1.28-61.89056 68.46976-128l238.5664 234.74176 168.03328-165.34528 67.18976 66.11456-167.90528 165.34016 117.54496 115.67104c53.05856-32.49152 116.13184-51.32288 183.71072-51.32288 189.10208 0 342.35904 147.26144 342.35904 328.91392 0 181.64224-153.2672 328.78592-342.3744 328.78592z m0-564.15744c-136.42752 0-247.296 105.5488-247.296 235.3664s110.99648 235.37152 247.296 235.37152c136.42752 0 247.30624-105.55392 247.30624-235.37152s-111.0016-235.3664-247.30624-235.3664z"  horiz-adv-x="1024" />

    
    <glyph glyph-name="weibo-s" unicode="&#59630;" d="M757.213867 394.601813c-39.60832 7.64928-20.31616 28.5696-20.31616 28.5696s38.741333 63.09888-7.75168 109.01504c-57.511253 56.794453-197.48864-7.144107-197.48864-7.144106-53.384533-16.325973-39.266987 7.48544-31.685974 47.960746 0 47.786667-16.534187 128.566613-158.931626 80.9472-142.22336-48.131413-264.30464-216.313173-264.30464-216.313173C-8.147627 325.901653 3.04128 239.517013 3.04128 239.517013c21.17632-190.815573 226.583893-243.182933 386.38592-255.607466 168.045227-12.919467 394.994347 57.146027 463.69792 201.352533 68.867413 144.37376-56.139093 201.51296-95.911253 209.339733zM401.831253 37.638827c-166.85056-7.652693-301.841067 74.830507-301.841066 184.68864 0 110.035627 134.990507 198.12352 301.841066 205.776213 167.021227 7.64928 302.178987-60.37504 302.178987-170.062507 0-109.69088-135.15776-212.916907-302.178987-220.402346z m-33.232213 318.194346c-167.881387-19.387733-148.421973-174.482773-148.421973-174.482773s-1.716907-49.148587 44.939946-74.15808c98.1504-52.54144 199.396693-20.739413 250.35776 44.393813 51.124907 64.959147 21.179733 223.453867-146.875733 204.24704z m-42.359467-217.859413c-31.3344-3.570347-56.644267 14.291627-56.644266 40.1408 0 25.678507 22.381227 52.712107 53.722453 55.95136 35.98336 3.403093 59.40224-17.00864 59.40224-43.021653 0.170667-25.685333-25.309867-49.503573-56.480427-53.070507z m99.007147 83.15904c-10.676907-7.819947-23.7568-6.795947-29.27616 2.720427-5.850453 9.188693-3.618133 23.821653 7.058773 31.464106 12.397227 9.178453 25.31328 6.458027 30.993067-2.720426 5.522773-9.188693 1.553067-23.296-8.77568-31.464107z m413.760853 240.643413c13.59872 0 24.96512 9.86112 27.0336 22.784 0.16384 1.027413 0.341333 1.870507 0.341334 2.891094 20.493653 181.79072-151.005867 150.504107-151.005867 150.504106a27.2384 27.2384 0 0 1-27.374933-27.38176c0-14.96064 12.219733-27.037013 27.374933-27.037013 123.112107 26.873173 96.078507-94.72 96.078507-94.72-0.170667-14.97088 12.223147-27.040427 27.552426-27.040427z m-19.981653 317.330774c-59.22816 13.786453-120.36096 1.867093-137.396907-1.36192-1.375573-0.167253-2.587307-1.36192-3.792213-1.529174a3.324587 3.324587 0 0 1-1.041067-0.679253c-16.86528-4.765013-29.095253-20.0704-29.095253-38.260053 0-21.592747 17.732267-39.458133 39.939413-39.458134 0 0 21.52448 2.894507 36.164267 8.506027 14.45888 5.778773 137.40032 4.2496 198.352213-96.771413 33.235627-73.806507 14.639787-123.122347 12.2368-131.116374 0 0-7.929173-19.22048-7.929173-38.0928 0-21.763413 17.74592-35.54304 39.939413-35.54304 18.425173 0 33.921707 2.54976 38.406827 33.334614h0.16384c65.785173 215.466667-79.875413 316.65152-185.94816 340.97152z"  horiz-adv-x="1024" />

    
    <glyph glyph-name="arrow-down-c-s" unicode="&#59631;" d="M511.813411-127.996595c283.367836 0 511.812747 228.424484 511.812748 511.57783 0 283.885334-228.444911 511.574426-511.812748 511.574425C228.452385 895.15566 0.004069 666.734581 0.004069 383.581235s228.448316-511.57783 511.809342-511.57783z m272.384613 408.684164l-226.987745-224.046175c-5.859308-5.842285-12.450603-10.217189-20.50247-13.866915-8.051867-3.646321-16.103734-5.106892-24.16241-5.842285-8.055271-0.725179-16.103734 0.735392-23.427017 2.921142-7.323284 2.189155-13.914579 6.570868-19.041899 12.406344L239.432203 279.952176c-11.711806 11.67776-17.571114 24.812687-17.571114 40.872162 0 16.056069 5.855903 29.916175 17.571114 40.861947 5.859308 5.83888 12.447199 10.220594 19.770483 13.138332s14.643163 4.378309 22.698434 4.378309c8.058676 0 14.646567-1.460571 21.96985-4.378309 7.319879-2.917738 13.90777-7.302856 19.767078-13.138332l188.175363-185.359763 188.178768 185.359763c5.855903 5.83888 12.443794 10.220594 19.770483 13.138332a59.862992 59.862992 0 0 0 22.695029 4.378309c8.055271 0 14.646567-1.460571 21.966446-4.378309 7.316474-2.917738 13.911175-7.302856 19.777292-13.138332 11.708402-11.674356 17.56771-24.805878 17.567709-40.861947-0.003405-16.059474-5.862712-28.469222-17.571114-40.136769zM236.507656 660.899106c5.859308 5.835476 12.447199 10.217189 19.770483 13.131522a59.791495 59.791495 0 0 0 22.698434 4.381714c8.051867 0 14.643163-1.460571 21.966446-4.381714 7.323284-2.914333 13.911175-7.296047 19.770482-13.131522l188.175363-185.366573 188.175364 185.366573c5.859308 5.835476 12.447199 10.217189 19.770482 13.131522a59.798304 59.798304 0 0 0 22.701839 4.381714c8.055271 0 14.646567-1.460571 21.963041-4.381714 7.319879-2.914333 13.911175-7.296047 19.770483-13.131522 11.715211-11.674356 17.571114-24.812687 17.571114-40.868757s-5.855903-29.922984-17.571114-40.868757l-226.980936-224.04277c-5.859308-5.83888-12.447199-10.217189-20.50247-13.863511-8.051867-3.649726-16.103734-5.110297-24.159006-5.83888-8.055271-0.728583-16.113948 0.728583-23.433826 2.917738-7.319879 2.189155-13.911175 6.567464-19.03509 12.406344L236.507656 578.433009c-11.718616 11.67776-17.574519 24.812687-17.574519 40.868756 0 16.056069 5.855903 29.922984 17.574519 41.597341z"  horiz-adv-x="1026" />

    
    <glyph glyph-name="arrow-up-s" unicode="&#59632;" d="M977.841493 68.041387H46.16192C21.162667 68.06528 0.9216 88.651093 0.948907 114.008747a46.30528 46.30528 0 0 0 11.195733 30.184106L477.999787 684.315307a44.765867 44.765867 0 0 0 63.808853 4.25984c1.491627-1.324373 2.891093-2.747733 4.194987-4.25984l465.851733-540.12928c16.448853-19.073707 14.564693-48.059733-4.215467-64.771414a44.93312 44.93312 0 0 0-29.7984-11.373226z"  horiz-adv-x="1024" />

    
    <glyph glyph-name="arrow-right-l" unicode="&#59633;" d="M261.014187-52.589227c143.919787 142.97088 285.934933 284.975787 431.75936 430.80704L257.201493 808.075947c33.358507 31.453867 59.091627 57.186987 81.9712 79.110826l508.013227-508.009813L340.1216-127.890773c-20.968107 20.974933-47.65696 45.755733-79.107413 75.301546z"  horiz-adv-x="1024" />

    
    <glyph glyph-name="arrow-left-c-s" unicode="&#59634;" d="M4.266667 384c0-279.17312 225.792-504.241493 505.68192-504.241493 280.61696 0 505.685333 225.068373 505.685333 504.241493S789.84192 888.244907 509.948587 888.244907C230.058667 888.244907 4.266667 663.17312 4.266667 384z m403.971413-268.352853L186.7776 339.275093c-5.771947 5.768533-10.103467 12.260693-13.71136 20.196694-3.607893 7.932587-5.04832 15.868587-5.771947 23.804586-0.7168 7.936 0.723627 15.868587 2.88768 23.084374s6.488747 13.707947 12.264107 18.756266l225.068373 227.23584c11.543893 11.543893 24.531627 17.312427 40.3968 17.312427 15.868587 0 29.57312-5.768533 40.393387-17.312427 5.771947-5.768533 10.100053-12.264107 12.98432-19.47648a58.743467 58.743467 0 0 0 4.33152-22.360746c0-7.936-1.440427-14.42816-4.33152-21.640534-2.884267-7.215787-7.212373-13.707947-12.98432-19.479893L305.803947 384l183.227733-185.391787c5.771947-5.771947 10.09664-12.264107 12.98432-19.47648 2.884267-7.212373 4.324693-14.42816 4.324693-22.36416s-1.440427-14.431573-4.324693-21.643946c-2.88768-7.212373-7.212373-13.704533-12.98432-19.47648-11.543893-11.543893-24.5248-17.312427-40.400213-17.312427-15.868587 0-29.57312 5.768533-40.393387 17.312427zM784.073387 655.23712c5.768533-5.768533 10.100053-12.260693 12.987733-19.47648a58.743467 58.743467 0 0 0 4.33152-22.360747c0-7.936-1.44384-14.42816-4.33152-21.640533-2.88768-7.212373-7.215787-13.707947-12.987733-19.479893l-183.231147-185.391787 183.231147-185.3952c5.768533-5.771947 10.100053-12.264107 12.987733-19.47648s4.33152-14.42816 4.33152-22.36416c0-7.932587-1.44384-14.42816-4.33152-21.643947-2.88768-7.212373-7.215787-13.704533-12.987733-19.473066-11.54048-11.54048-24.528213-17.312427-40.393387-17.312427-15.868587 0-29.579947 5.771947-40.400213 17.312427l-221.463894 223.627946c-5.771947 5.768533-10.09664 12.260693-13.704533 20.200107-3.607893 7.936-5.051733 15.865173-5.771947 23.804587-0.723627 7.936 0.7168 15.868587 2.884267 23.084373 2.164053 7.212373 6.495573 13.707947 12.260693 18.756267l225.071787 227.232426c11.54048 11.54048 24.528213 17.312427 40.3968 17.312427 15.872-0.003413 29.579947-6.495573 41.120427-17.31584z"  horiz-adv-x="1024" />

    
    <glyph glyph-name="playing-loop-l" unicode="&#59635;" d="M986.37824 421.51936c-21.855573 0-36.427093-13.841067-36.427093-33.512107v-91.794773c0-115.111253-98.348373-209.8176-225.8432-209.8176H158.04416l47.356587 40.79616c7.284053 6.557013 14.57152 16.756053 14.57152 26.955093 0 20.401493-18.213547 37.157547-40.06912 37.157547-10.929493 0-25.4976-3.642027-32.781654-10.202453L23.26528 76.19584c-18.213547-13.84448-14.57152-37.157547 0-50.9952L147.114667-76.066133c7.284053-6.557013 21.855573-13.841067 32.781653-13.841067 21.855573 0 40.06912 13.841067 43.711147 33.512107 0 13.841067-7.284053 24.036693-18.213547 30.59712l-54.64064 47.353173H719.735467c167.560533 0 303.06304 125.30688 303.06304 273.923413v92.525227c0.006827 20.401493-14.564693 33.51552-36.420267 33.51552zM37.8368 337.00864c21.855573 0 36.427093 13.841067 36.427093 33.508693v94.70976c0 118.749867 101.993813 213.459627 225.8432 216.374614h565.336747l-47.353173-40.79616c-7.287467-6.557013-14.57152-16.756053-14.57152-26.955094 0-20.39808 18.213547-37.154133 40.06912-37.154133 10.92608 0 25.4976 3.642027 32.781653 10.19904l120.20736 104.9088c18.213547 13.841067 14.57152 37.154133 0 50.9952l-123.849387 101.26336c-7.287467 6.557013-21.855573 13.84448-32.781653 13.84448-21.855573 0-40.06912-13.84448-43.71456-33.512107 0-13.841067 7.287467-24.040107 18.213547-30.59712l54.64064-47.353173H303.74912C136.188587 746.4448 0.682667 621.13792 0.682667 462.318933v-91.06432c0.72704-20.404907 15.29856-34.245973 37.154133-34.245973z m510.696107-121.664853v338.039466h-54.637227l-91.06432-60.4672 18.213547-43.711146 69.208746 43.711146v-277.572266h58.279254z"  horiz-adv-x="1024" />

    
    <glyph glyph-name="thumb-l" unicode="&#59636;" d="M1001.433829 482.767498c-18.317803 21.874194-45.420779 34.266954-73.991364 34.266954h-308.412825c-10.259608 0-16.853607 6.563282-16.853608 9.481434 38.092975 67.076538 90.841558 281.442957 35.898389 336.130149-44.683562 44.475366-97.432145 44.475366-142.852924 0-12.450782-12.39276-21.242781-35.727736-40.290975-85.309015-34.427367-90.414928-97.428732-257.387829-194.130486-260.302568H63.737746C28.573162 517.034452 0.002577 488.600389 0.002577 453.603044v-516.953179c0-35.000758 28.570585-63.438234 63.731756-63.438235h446.139358c18.310977 0 32.966585 14.580521 32.966585 32.082607 0 17.498673-14.655608 32.079193-32.966585 32.079193H290.834816V456.517783c120.876339 26.249715 184.608095 194.679986 224.172092 298.214651 9.522391 25.519324 21.242781 56.141148 25.638781 62.704431 6.594 7.29026 16.850194 15.310912 25.645607 15.310911 9.515565 0 19.041368-8.020652 25.638781-14.58052 18.31439-26.249715-6.597413-191.765247-45.424193-260.299155-11.72039-20.416825-11.72039-44.478779 0-64.895604 13.91839-24.061955 42.492388-39.372867 72.527169-39.372866h308.412825c9.522391 0 18.310977-4.375521 24.908389-11.665782 6.594-7.29026 8.788586-16.771694 7.324391-26.246302l-75.45556-451.340836c-2.198-16.034477-16.119803-27.700259-32.229367-27.700259h-158.238923c-17.577173 0-32.229367-14.580521-32.229367-32.082607 0-17.498673 14.652195-32.079193 32.229367-32.079193h158.238923c47.615366 0 87.913167 34.266954 95.964536 80.926668l74.718343 451.340836c4.399413 27.703672-2.928391 56.141148-21.242781 78.015342z m-937.696083-29.164454h162.63151v-516.953179h-162.63151V453.603044z"  horiz-adv-x="1024" />

    
    <glyph glyph-name="arrow-down-l" unicode="&#59637;" d="M515.584 75.95008c170.970453 170.01472 340.043093 340.036267 508.16 508.16-22.79424 22.79424-47.49312 48.438613-78.841173 79.783253-142.472533-142.475947-284.945067-284.94848-432.172374-433.13152L88.159573 655.346347A17393.384107 17393.384107 0 0 0 7.424 583.15776c170.970453-170.018133 340.03968-339.090773 508.16-507.20768z"  horiz-adv-x="1024" />

    
    <glyph glyph-name="wechat-s" unicode="&#59638;" d="M712.843947 550.618453c5.014187 0 9.99424-0.11264 14.9504-0.300373-31.56992 144.571733-180.578987 254.04416-359.666347 254.04416C166.068907 804.36224 2.259627 665.009493 2.259627 493.11744c0-100.42368 55.924053-189.733547 142.71488-246.657707L108.424533 138.6496l121.040214 66.368853c42.765653-14.912853 89.576107-23.149227 138.653013-23.149226 9.46176 0 18.8416 0.29696 28.11904 0.897706a242.619733 242.619733 0 0 0-15.79008 86.009174c0.01024 155.654827 148.831573 281.842347 332.397227 281.842346z m-218.466987 99.88096c29.835947 0 54.029653-24.19712 54.029653-54.022826-0.351573-29.83936-24.82176-53.742933-54.664533-53.39136-29.341013 0.34816-53.046613 24.050347-53.387947 53.39136 0 29.832533 24.18688 54.016 54.022827 54.022826z m-251.344213-108.059306c-29.835947 0.003413-54.02624 24.193707-54.022827 54.033066 0 29.835947 24.190293 54.02624 54.033067 54.022827 29.83936-0.003413 54.02624-24.193707 54.02624-54.033067-0.003413-29.835947-24.193707-54.022827-54.03648-54.022826z m778.707626-273.657174c0 144.646827-138.30144 261.91872-308.903253 261.91872-170.605227 0-308.89984-117.271893-308.89984-261.91872 0-144.663893 138.30144-261.922133 308.89984-261.922133 35.81952 0 70.20544 5.18144 102.202027 14.690987l105.6256-57.910614-30.70976 90.538667c79.680853 47.373653 131.785387 125.81888 131.785386 214.603093zM616.3456 306.37056c-23.893333-0.006827-43.260587 19.360427-43.264 43.25376 0 23.886507 19.36384 43.260587 43.257173 43.260587 23.88992 0.003413 43.260587-19.36384 43.260587-43.257174 0.003413-23.88992-19.360427-43.257173-43.25376-43.257173z m201.22624 0c-23.886507-0.02048-43.267413 19.336533-43.28448 43.229867-0.013653 23.883093 19.34336 43.264 43.229867 43.277653h0.054613c23.88992-0.013653 43.246933-19.39456 43.229867-43.277653-0.013653-23.872853-19.360427-43.219627-43.229867-43.229867z"  horiz-adv-x="1024" />

    
    <glyph glyph-name="at-l" unicode="&#59639;" d="M512 151.97184c-128.098987 0-232.024747 103.922347-232.024747 232.02816 0 128.098987 103.922347 232.021333 232.024747 232.021333s232.02816-103.922347 232.02816-232.021333c0-128.1024-103.922347-232.02816-232.02816-232.02816z m0 367.383893c-74.635947 0.116053-135.22944-60.29312-135.348907-134.925653v-0.423253c0-74.919253 60.433067-135.348907 135.348907-135.348907 74.909013 0 135.345493 60.429653 135.345493 135.348907 0.116053 74.632533-60.29312 135.232853-134.92224 135.348906H512zM512-123.552427c-135.348907 0-263.44448 53.16608-357.707093 147.428694C57.613653 120.562347 4.450987 248.65792 4.450987 384c0 135.348907 53.162667 263.441067 147.42528 357.70368C248.558933 838.386347 374.237867 891.552427 509.579947 891.552427c135.345493 0 263.447893-53.162667 357.70368-147.421867 94.262613-94.255787 152.2688-224.774827 152.2688-360.123733v-45.909334c0-101.512533-84.60288-186.12224-186.112-186.12224-101.502293 0-186.094933 84.609707-186.094934 186.12224V567.688533c0 26.589867 21.76 48.339627 48.325974 48.339627 26.586453 0 48.34304-21.753173 48.34304-48.339627v-229.59104c0-48.349867 41.086293-89.439573 89.412266-89.439573 48.346453 0 89.432747 41.089707 89.432747 89.439573V384c0 108.75904-43.496107 212.688213-120.849067 290.02752C724.681387 751.377067 620.75904 794.88 512 794.88c-108.762453 0-212.691627-43.513173-290.030933-120.85248C144.626347 596.688213 101.116587 492.765867 101.116587 384c0-227.181227 183.69536-410.873173 410.883413-410.873173 89.408853 0 178.85184 28.996267 248.9344 84.596053 21.753173 16.896 50.74944 12.0832 67.689813-9.6768 16.90624-21.746347 12.069547-50.746027-9.690453-67.6864-86.992213-67.648853-195.754667-103.912107-306.93376-103.912107z"  horiz-adv-x="1024" />

    
    <glyph glyph-name="arrow-left-s" unicode="&#59640;" d="M818.162347 841.925973v-915.862186c-0.03072-24.576-19.974827-44.47232-44.550827-44.445014a44.50304 44.50304 0 0 0-29.24544 11.004587L220.986027 350.5664c-18.46272 16.1792-20.309333 44.264107-4.130134 62.723413 1.283413 1.467733 2.6624 2.843307 4.130134 4.12672L744.362667 875.35616c18.4832 16.16896 46.57152 14.31552 62.767786-4.140373a44.537173 44.537173 0 0 0 11.031894-29.289814z"  horiz-adv-x="1024" />

    
    <glyph glyph-name="setting-l" unicode="&#59641;" d="M369.183573 879.786667c23.637333-0.761173 51.70176-28.357973 59.04384-34.751147 64.57344-58.24512 107.13088-58.24512 172.4416-1.42336 47.701333 41.908907 65.307307 44.038827 121.07776 12.786347a5975.087787 5975.087787 0 0 0 91.723094-51.851947c33.75104-19.88608 44.02176-48.295253 33.75104-85.94432-27.880107-100.150613 14.677333-166.918827 115.940693-179.70176 27.88352-3.55328 45.492907-18.469547 52.10112-46.882133 16.87552-73.867947 16.141653-148.452693 0-222.317227-6.608213-29.832533-25.678507-44.038827-55.02976-45.458773-54.30272-3.55328-96.863573-29.119147-112.274773-83.8144-8.072533-26.279253-5.870933-58.241707 0-85.23776 11.011413-49.722027 3.669333-76.004693-41.09312-100.860587-33.020587-18.469547-65.307307-38.355627-99.058347-56.108373-36.68992-20.599467-64.570027-17.053013-96.12288 10.653013-13.2096 12.07296-25.68192 24.14592-40.359253 34.085547-44.025173 32.672427-77.04576 32.672427-121.074347 1.42336-14.67392-9.94304-27.149653-22.729387-40.359253-34.802347-30.08512-26.279253-60.166827-29.832533-93.924694-9.939627-33.757867 19.172693-67.505493 38.3488-101.26336 58.241707-36.68992 21.306027-49.896107 50.432-35.222186 90.207573 33.020587 89.501013-27.880107 173.312-113.73568 176.86528-34.48832 1.419947-47.694507 14.912853-54.299307 49.001814-14.67392 70.324907-15.4112 140.642987-1.467733 210.961066 8.06912 38.355627 22.746453 50.432 60.17024 53.271894 83.647147 6.393173 135.75168 82.394453 112.274773 164.078933-16.878933 58.95168-8.8064 78.134613 43.291307 107.963733 33.020587 18.466133 65.31072 38.355627 99.058346 56.111787 11.731627 7.81312 20.773547 14.20288 44.41088 13.441707z m418.553174-133.25312c-3.816107 4.437333-8.410453 12.57472-15.28832 17.01888-19.104427 11.834027-39.738027 19.971413-57.320107 33.286826-29.04064 22.196907-51.193173 19.234133-79.479467-5.18144-42.79296-38.468267-93.999787-66.58048-152.849066-45.86496-38.212267 14.05952-74.130773 39.20896-109.284694 62.143147-12.997973 8.137387-20.637013 13.312-35.160746 4.440747-25.217707-16.274773-51.971413-31.071573-77.950294-43.649707-18.343253-9.618773-22.923947-19.234133-17.578666-41.427627 28.276053-122.064213-40.50944-230.813013-161.262934-254.487893-18.33984-3.700053-24.45312-11.83744-25.214293-28.849493-0.768-41.424213 0-82.11456 0-123.549014 0-19.227307 9.929387-25.146027 28.279467-28.842666 99.351893-19.244373 178.834773-113.189547 162.78528-213.060267-10.7008-67.31776 14.516907-93.218133 64.955733-112.452267 1.532587-0.740693 1.532587-0.740693 2.29376-1.477973 24.456533-19.237547 42.031787-16.274773 65.723733 5.922133 79.479467 72.492373 156.672 83.58912 230.802774 19.223894 51.974827-45.86496 89.41568-40.68352 136.8064-4.43392 3.05152 2.208427 6.109867 4.43392 10.7008 5.174613 25.224533 8.881493 31.330987 24.425813 23.688533 51.787093-31.337813 113.189547 51.968 231.563947 161.252693 249.31328 18.343253 2.955947 25.22112 11.83744 25.22112 28.105387a3268.922027 3268.922027 0 0 1 0 123.542187c0 18.49344-8.403627 25.890133-26.74688 29.590186-64.955733 12.57472-113.107627 49.565013-144.4352 110.230187-26.74688 51.790507-28.279467 105.055573-9.939626 163.498667z m-46.91968-354.665814c0.733867-125.723307-110.06976-232.973653-240.677547-232.973653-132.078933-0.713387-242.148693 103.70048-244.353707 230.130347-2.205013 127.85664 107.86816 233.68704 242.879147 234.397013 132.819627 0.713387 241.41824-103.70048 242.152107-231.553707z m-66.1504-1.795413c0.89088 90.303147-79.970987 170.284373-174.138027 172.008107-93.293227 1.716907-177.698133-76.547413-178.589013-166.847147-0.894293-95.46752 77.298347-172.87168 175.919786-172.87168 96.843093-0.856747 175.926613 73.966933 176.807254 167.71072z"  horiz-adv-x="1027" />

    
    <glyph glyph-name="song-list-l" unicode="&#59642;" d="M1018.125653 724.84864c-57.337173 65.010347-130.839893 115.985067-212.432213 147.75296-22.050133 8.864427-46.298453-2.218667-55.125333-23.64416-2.2016-5.1712-2.935467-10.3424-2.935467-15.5136v-522.304853c-39.69024 31.030613-88.203947 48.018773-138.922667 48.018773-123.48416 0-224.18432-99.734187-224.18432-222.368427 0-122.630827 100.70016-222.365013 224.18432-222.365013 123.48416 0 224.191147 99.734187 224.191147 222.365013 0 2.218667 0 4.437333-0.740693 6.652587 0 1.477973 0.740693 2.21184 0.740693 3.693227V766.21824c45.568-25.11872 86.7328-58.361173 121.279147-96.77824 15.435093-17.732267 42.62912-19.21024 60.27264-3.69664 17.63328 14.779733 19.838293 41.376427 3.672746 59.10528zM608.703147-1.355093c-76.445013 0-138.922667 62.0544-138.922667 137.413973 0 75.352747 62.481067 137.407147 138.922667 137.407147 76.445013 0 138.922667-62.0544 138.922666-137.407147 0-75.362987-62.47424-137.413973-138.922666-137.413973zM42.728107 634.719573h491.73504c23.524693 0 42.632533 19.206827 42.632533 42.110294 0 23.640747-19.111253 42.10688-42.632533 42.10688H42.728107c-23.528107 0-42.632533-19.206827-42.632534-42.10688 0-22.903467 19.104427-42.110293 42.632534-42.110294z m299.158186-190.600533H42.728107c-23.528107 0-42.632533-19.21024-42.632534-42.110293s19.10784-42.110293 42.632534-42.110294h299.158186c23.52128 0 42.632533 19.21024 42.632534 42.110294s-19.114667 42.110293-42.632534 42.110293z m-127.901013-275.5584H42.728107c-23.528107 0-42.632533-19.21024-42.632534-42.110293 0-22.903467 19.10784-42.10688 42.632534-42.10688h171.257173c23.524693 0 42.632533 19.203413 42.632533 42.10688 0 22.900053-19.10784 42.110293-42.632533 42.110293z"  horiz-adv-x="1029" />

    
    <glyph glyph-name="collect-s" unicode="&#59643;" d="M728.326827 651.567787l-305.179307 194.21184H1.140053v-904.61184h1020.70272V651.567787h-293.515946z m-52.565334-381.12256h-153.32352v-151.13216h-47.455573v151.13216h-153.326933v50.377386h152.599893V471.9616h47.455573v-151.135573h153.32352v-50.377387h0.72704z"  horiz-adv-x="1024" />

    
    <glyph glyph-name="arrow-down-s" unicode="&#59644;" d="M45.318246 696.077653h933.57056c25.053867-0.027307 45.335893-20.360533 45.308587-45.410986a45.35296 45.35296 0 0 0-11.219627-29.80864L546.177126 87.350613c-16.493227-18.817707-45.11744-20.701867-63.931733-4.205226a44.93312 44.93312 0 0 0-4.212053 4.205226L11.22246 620.858027C-5.260527 639.6928-3.366127 668.32384 15.448166 684.834133a45.448533 45.448533 0 0 0 29.87008 11.24352z"  horiz-adv-x="1024" />

    
    <glyph glyph-name="arrow-right-c-s" unicode="&#59645;" d="M1016.569173 384c0 279.401813-225.979733 504.661333-506.105173 504.661333C229.618347 888.661333 4.358827 663.401813 4.358827 384S230.335147-120.661333 510.464-120.661333c280.12544 0 506.105173 224.535893 506.105173 504.661333zM612.263253 651.851093l221.648214-223.812266c5.77536-5.77536 10.10688-12.274347 13.718186-20.21376 3.611307-7.942827 5.04832-15.88224 5.77536-23.825067 0.723627-7.942827-0.72704-15.88224-2.88768-23.104853-2.167467-7.2192-6.498987-13.7216-12.27776-18.773334l-225.256106-227.423573c-11.55072-11.547307-24.54528-17.322667-40.42752-17.322667-15.889067 0-29.60384 5.77536-40.434347 17.322667-5.77536 5.77536-10.10688 12.274347-12.997973 19.493547-2.88768 7.2192-4.33152 14.4384-4.33152 22.38464s1.44384 14.4384 4.33152 21.661013c2.891093 7.2192 7.2192 13.718187 12.997973 19.493547l183.381333 185.5488-183.381333 185.545386c-5.77536 5.77536-10.10688 12.274347-12.997973 19.493547a58.832213 58.832213 0 0 0-4.33152 22.381227c0 7.942827 1.44384 14.4384 4.33152 21.661013 2.891093 7.2192 7.2192 13.718187 12.997973 19.490133 11.554133 11.55072 24.541867 17.329493 40.434347 17.329494 15.88224 0 28.156587-5.778773 39.707306-17.329494z m-376.149333-539.316906c-5.77536 5.77536-10.103467 12.281173-12.997973 19.500373a58.862933 58.862933 0 0 0-4.328107 22.377813c0 7.942827 1.44384 14.4384 4.328107 21.661014 2.891093 7.2192 7.2192 13.7216 12.997973 19.493546l183.381333 185.5488-183.381333 185.545387c-5.77536 5.77536-10.103467 12.274347-12.997973 19.493547a58.893653 58.893653 0 0 0-4.328107 22.381226c0 7.942827 1.44384 14.4384 4.328107 21.661014 2.891093 7.2192 7.2192 13.718187 12.997973 19.493546 11.554133 11.55072 24.54528 17.32608 40.434347 17.32608 15.88224 0 29.597013-5.77536 40.42752-17.32608l221.648213-223.812266c5.77536-5.77536 10.110293-12.274347 13.7216-20.217174 3.611307-7.939413 5.051733-15.88224 5.77536-23.825066 0.7168-7.939413-0.723627-15.88224-2.894507-23.104854-2.167467-7.2192-6.49216-13.718187-12.270933-18.773333l-225.256107-227.423573c-11.554133-11.547307-24.548693-17.322667-40.434346-17.322667-15.88224 0-29.600427 5.77536-41.151147 17.322667z"  horiz-adv-x="1024" />

    
    <glyph glyph-name="arrow-right-s" unicode="&#59646;" d="M198.008461-82.721662V850.38672C198.035596 875.425181 218.495092 895.698127 243.699754 895.670993a45.810006 45.810006 0 0 0 29.990528-11.21677L810.460366 417.888161c18.936566-16.49106 20.825814-45.114682 4.21604-63.925751a46.400184 46.400184 0 0 0-4.21604-4.192297L273.690282-116.785774c-18.967093-16.487668-47.797617-14.574678-64.393823 4.270309a45.155384 45.155384 0 0 0-11.287998 29.793803z"  horiz-adv-x="1024" />

    
    <glyph glyph-name="arrow-up-c-s" unicode="&#59647;" d="M509.952 891.815253C229.60128 891.815253 3.584 665.074347 3.584 384c0-281.797973 226.01728-507.815253 506.368-507.815253 280.354133 0 506.371413 226.74432 506.371413 507.815253C1016.32 665.074347 791.022933 891.815253 509.952 891.815253zM241.19296 486.144l224.570027 222.395733c5.79584 5.79584 12.311893 10.141013 20.282026 13.76256 7.96672 3.62496 15.936853 5.072213 23.903574 5.79584 7.970133 0.723627 15.940267-0.723627 23.18336-2.89792 7.246507-2.17088 13.76256-6.519467 18.834773-12.311893l228.191573-226.020693c11.59168-11.59168 17.390933-24.6272 17.390934-40.567467 0-15.936853-5.79584-29.702827-17.390934-40.567467-5.792427-5.79584-12.311893-10.144427-19.554986-13.042346a59.09504 59.09504 0 0 0-22.459734-4.345174c-7.963307 0-14.486187 1.450667-21.732693 4.345174-7.243093 2.89792-13.759147 7.246507-19.554987 13.042346l-186.17344 183.278934-186.90048-184.00256c-5.79584-5.79584-12.315307-10.141013-19.5584-13.038934a59.04384 59.04384 0 0 0-22.459733-4.345173c-7.96672 0-14.4896 1.447253-21.732693 4.345173s-13.76256 7.246507-19.5584 13.038934c-11.588267 11.59168-17.384107 24.630613-17.384107 40.567466-0.003413 15.93344 5.789013 29.699413 18.10432 40.567467z m541.139627-377.422507c-5.79584-5.792427-12.315307-10.1376-19.5584-13.038933a59.081387 59.081387 0 0 0-22.459734-4.34176c-7.963307 0-14.486187 1.450667-21.72928 4.34176-7.243093 2.904747-13.76256 7.246507-19.5584 13.038933l-186.17344 184.00256-186.17344-184.00256c-5.79584-5.792427-12.31872-10.1376-19.561813-13.038933a59.0848 59.0848 0 0 0-22.452907-4.34176c-7.970133 0-14.4896 1.450667-21.732693 4.34176-7.243093 2.904747-13.765973 7.246507-19.5584 13.038933-11.59168 11.59168-17.38752 24.630613-17.38752 40.57088 0 15.936853 5.79584 29.699413 17.38752 40.567467l224.570027 222.395733c5.792427 5.792427 12.315307 10.141013 20.278613 13.76256 7.970133 3.62496 15.940267 5.0688 23.906987 5.79584 7.970133 0.723627 15.936853-0.723627 23.179946-2.89792 7.243093-2.17088 13.765973-6.519467 18.838187-12.315306l228.194987-226.013867c11.59168-11.59168 17.384107-24.634027 17.384106-40.57088s-5.802667-29.702827-17.394346-41.294507z"  horiz-adv-x="1024" />

    
    <glyph glyph-name="badge-l" unicode="&#59648;" d="M523.170776 106.286143c-218.698219 0.235354-395.813863 177.719378-395.568277 396.43124 0.170546 158.82968 95.226179 302.187408 241.462727 364.16731 202.68052 82.169161 433.603491-15.533348 515.759009-218.22069 80.477343-198.502138-11.491403-425.007963-207.568374-511.253178a393.3273 393.3273 0 0 0-154.085085-31.124682z m0 732.059348c-185.66342 0-336.194321-150.510436-336.194321-336.170445a336.180678 336.180678 0 0 1 98.459735-237.714121c131.078402-131.494534 343.933708-131.835627 475.424831-0.764047 131.484302 131.07158 131.835627 343.923475 0.764047 475.41801l-0.764047 0.764047a333.929468 333.929468 0 0 1-237.690245 98.466556z m0-499.475257c-90.051807 0-163.301401 73.263238-163.301401 163.287758 0 90.041574 73.239362 163.287758 163.301401 163.287757 90.048396 0 163.287758-73.246184 163.287758-163.287757 0-90.038163-73.280293-163.287758-163.287758-163.287758z m0 266.880933c-57.208019 0.013644-103.599997-46.354458-103.613641-103.569299-0.013644-57.21143 46.364691-103.593175 103.569299-103.599997 57.208019-0.020466 103.586354 46.357869 103.603408 103.559066v0.023877c-0.057986 57.17732-46.371513 103.518135-103.559066 103.586353z m266.110065-733.751167a43.796265 43.796265 0 0 0-20.81687 6.132842c-6.951463 4.059-13.633464 10.133855-19.831113 18.166581l-174.07651 224.496791 47.196956 36.568517 152.461485-196.622719 2.155704 54.278035c0.832265 21.072689 10.399908 40.180686 26.270937 52.432725 15.857386 12.241807 36.773173 16.679419 57.364922 12.146301l51.982483-11.40272-152.161324 196.223641 47.183313 36.588983 174.042401-224.486558c6.218115-8.012261 10.461304-15.973357 12.65794-23.69569 3.39728-12.050795 1.906707-24.002673-4.202259-33.658998-6.102143-9.656326-16.270108-16.126849-28.600598-18.23139-7.906522-1.333671-16.938649-0.910717-26.813274 1.258631l-86.903524 19.087531c-3.349527 0.740171-6.214704 0.351325-8.107767-1.094906-1.896474-1.43941-2.950449-4.110164-3.093708-7.524499l-3.530306-89.51288c-0.4059-10.130445-2.278497-18.97156-5.597327-26.342567-5.136852-11.372021-13.964323-19.544595-24.831527-23.027149-4.116985-1.313206-8.424982-1.913528-12.750034-1.780502z m-559.105033 1.33026c-4.328463 0-8.626227 0.726527-12.715924 2.152293-10.771698 3.775893-19.363816 12.149712-24.207329 23.69569-3.103941 7.411938-4.758239 16.31445-4.891265 26.434662l-1.152892 89.574277c0 3.424568-1.07103 6.119198-2.899286 7.613183-1.831666 1.493985-4.679788 1.961281-8.042959 1.306384l-87.384464-16.771514c-9.936022-1.906707-18.968149-2.084075-26.843972-0.535515-12.269094 2.418345-22.283567 9.113989-28.106015 18.97497-5.819036 9.857571-7.029915 21.81627-3.291542 33.761327 2.39788 7.650703 6.852546 15.495828 13.254851 23.28979l179.980821 219.779482 46.197555-37.823737-157.311818-192.055492 52.255357 10.031528c20.70772 3.973727 41.528001-1.013044 57.037472-13.674394 15.499239-12.678405 24.585941-32.035399 24.865637-53.108088l0.699239-54.308734 157.635857 192.49209 46.200967-37.830559-179.987643-219.786304c-6.42277-7.831482-13.248029-13.780133-20.318874-17.624245a43.635952 43.635952 0 0 0-20.973773-5.587094z"  horiz-adv-x="1024" />

    
    <glyph glyph-name="arrow-up-l" unicode="&#59649;" d="M516.39296 677.829973l507.436373-499.8144c-24.251733-22.934187-51.421867-47.783253-81.503573-76.45184-140.683947 139.53024-285.248853 282.88-429.817173 425.274027-147.47648-146.213547-292.041387-289.563307-441.460054-437.695147-30.07488 34.402987-53.364053 61.16352-69.85728 80.278187 167.857493 166.283947 341.527893 337.349973 515.201707 508.409173z"  horiz-adv-x="1024" />

    
    <glyph glyph-name="cloud-l" unicode="&#59650;" d="M768.375467 14.97088H243.206827c-127.645013-5.829973-235.59168 90.44992-241.425067 215.17312-5.8368 123.99616 92.634453 229.761707 220.276053 235.595093 0 150.985387 119.620267 276.442453 274.254507 286.655147 154.630827 10.212693 291.027627-98.471253 310.719147-248.726187 130.566827-19.694933 223.20128-133.4784 212.98176-261.850453-10.20928-128.37888-119.616853-226.84672-251.63776-226.84672zM273.84832 97.39264h493.800107c59.808427 0 115.244373 31.36512 145.145173 81.69472a159.97952 159.97952 0 0 1 0 163.386027c-29.904213 50.326187-85.336747 81.691307-145.145173 81.691306-10.939733 0-21.88288 4.375893-29.907627 11.666774-8.021333 7.294293-12.40064 18.234027-12.40064 29.177173 0 113.056427-94.088533 204.960427-210.066773 204.960427-115.971413 0-208.605867-91.904-208.605867-204.229974v-8.751786c99.19488-27.71968 167.76192-115.974827 167.76192-216.630614 0-14.585173-8.024747-28.450133-21.15584-35.744426s-29.177173-7.294293-42.308267 0c-13.124267 7.294293-21.149013 20.421973-21.149013 35.744426 0 78.77632-65.645227 142.96064-146.612907 142.96064-80.960853 0-146.60608-64.18432-146.60608-142.96064 0-78.772907 65.645227-142.964053 146.60608-142.964053h16.052907c5.833387 0.733867 10.212693 0.733867 14.592 0z"  horiz-adv-x="1024" />

    
    <glyph glyph-name="user-l" unicode="&#59651;" d="M511.64437 896c-168.449509 0-305.00122-136.55171-305.00122-305.004623 0-168.446106 136.55171-304.99101 305.00122-304.99101 168.449509 0 304.997817 136.55171 304.997817 304.99101 0 168.442703-136.558517 305.004623-304.997817 305.004623z m0-512.454322c-114.574117 0-207.453102 92.878985-207.453102 207.449699 0 114.574117 92.878985 207.449699 207.453102 207.449699s207.449699-92.875582 207.449699-207.449699c0.003403-114.570714-92.885791-207.449699-207.449699-207.449699zM105.470669-127.996597c-0.034032 2.310744-0.057854 4.607876-0.057853 6.91862 0 225.830155 181.354284 408.892824 405.064271 408.892824 223.71339 0 405.057465-183.062669 405.057465-408.892824 0-2.310744-0.020419-4.618085-0.057854-6.91862h105.426428c0.040838 2.300535 0.044241 4.607876 0.044241 6.91862 0 278.919418-228.545875 505.025228-510.47028 505.025228-281.934615 0-510.490699-226.10581-510.4907-505.025228 0-2.310744 0.023822-4.618085 0.051048-6.91862h105.433234z"  horiz-adv-x="1024" />

    
    <glyph glyph-name="close-l" unicode="&#59652;" d="M995.785387-29.928107c20.063573-20.063573 20.063573-50.561707 0-70.621866-10.431147-10.43456-22.46656-15.254187-35.310934-15.254187s-24.8832 4.819627-35.310933 15.254187l-416.529067 416.518826L92.115627-100.549973c-10.43456-10.43456-22.469973-15.254187-35.314347-15.254187-12.837547 0-24.876373 4.819627-35.310933 15.254187-20.063573 20.063573-20.063573 50.561707 0 70.621866L438.012587 386.594133 23.0912 803.1232c-20.063573 20.063573-20.063573 50.558293 0 70.621867 20.063573 20.063573 50.561707 20.063573 70.62528 0l416.52224-416.52224L926.767787 873.745067c20.063573 20.063573 50.561707 20.063573 70.62528 0 20.063573-20.063573 20.063573-50.561707 0-70.621867l-416.529067-416.525653 414.921387-416.525654z"  horiz-adv-x="1024" />

    
    <glyph glyph-name="bin-l" unicode="&#59653;" d="M640.003413 129.058133V507.511467a32.146773 32.146773 0 0 1-64.047786 0v-377.726294c0.003413-47.3088 64.77824-47.3088 64.047786-0.72704z m-192.866986 0V507.511467a32.146773 32.146773 0 0 1-64.047787 0v-377.726294c0.003413-47.3088 64.77824-47.3088 64.047787-0.72704zM930.392747 712.748373h-160.83968V785.527467c0 60.409173-42.943147 109.16864-95.34464 109.16864h-323.140267c-53.128533 0-96.79872-48.759467-96.79872-109.16864v-72.779094H94.1568c-41.48224 0-41.48224-72.779093 0-72.779093H190.225067v-656.472747c0-60.409173 43.666773-109.16864 96.79872-109.16864H736.802133c53.855573 0 96.79872 48.759467 96.07168 109.16864l0.730454 656.472747h96.791893c40.7552 0 40.7552 72.779093-0.003413 72.779093zM351.06816 821.917013h322.41664c16.735573 0 31.29344-14.557867 31.29344-36.389546v-72.779094H319.044267V785.527467c0 19.653973 15.284907 36.389547 32.023893 36.389546z m417.754453-292.573866v-545.846614c0-19.65056-15.281493-36.389547-32.023893-36.389546H286.293333c-16.735573 0-32.02048 16.738987-32.02048 36.389546V530.070187h0.730454V639.96928h513.82272v-110.626133z"  horiz-adv-x="1024" />

    
    <glyph glyph-name="search-l" unicode="&#59654;" d="M1007.46646-32.149806l-204.756684 204.033608a471.34318 471.34318 0 0 1 58.296291 99.828817c23.315788 55.383523 34.980503 114.406301 34.980503 174.885462 0 60.482572-11.664715 119.508761-34.980503 174.885462-22.592712 53.193831-54.646804 101.288612-96.186152 142.824549-40.80945 41.535937-88.900821 73.600261-142.094651 96.189562C567.341741 883.813442 509.04545 895.471336 448.562878 895.471336c-60.479162 0-119.501939-11.657894-174.155565-35.70699-53.200652-22.58589-101.288612-55.376701-142.094651-96.182741-40.80945-40.806039-73.600261-88.170923-96.186152-142.094651C12.803901 566.106842 1.149418 507.084064 1.149418 446.598081c0-60.479162 11.654483-119.501939 34.977092-174.885462 22.58589-53.193831 54.650215-101.27838 96.186152-142.824549 40.802629-41.535937 88.893999-73.59344 142.094651-96.182741 55.373291-23.319199 113.672992-35.70699 174.155565-35.706989 60.482572 0 119.508761 11.657894 174.162386 35.706989 36.436887 15.300559 69.954185 35.70699 101.285201 59.756086l204.033608-204.033608c21.859404-21.862814 57.562983-21.862814 79.422387 0 21.855993 22.58589 21.855993 57.562983 0 79.422387z m-558.903582 97.816483c-209.095139 0-380.106006 171.017688-380.106006 381.661302 0 210.650435 170.229808 381.661301 380.106006 381.661301 209.101961 0 380.106006-171.010867 380.106006-381.661301 0-210.647024-170.233219-381.661301-380.106006-381.661302z"  horiz-adv-x="1024" />

    
    <glyph glyph-name="book-s" unicode="&#59655;" d="M780.642987-72.475307a53.753173 53.753173 0 0 0-53.87264-53.876053H163.269973a53.753173 53.753173 0 0 0-53.87264 53.876053v805.205334a53.753173 53.753173 0 0 0 53.87264 53.876053h241.708374v-414.252373l128.86016 119.3984 139.052373-110.660267V786.602667h107.748693v-859.077974zM485.065387 556.544v230.058667h107.74528v-238.793387l-62.610774 50.234027-45.134506-41.499307zM914.602667 35.273387c0-14.56128-7.28064-29.119147-18.199894-38.587734l-12.38016 11.646294-21.11488-25.480534h-2.184533V867.413333H225.153707C236.076373 884.155733 255.00672 894.35136 274.660693 894.35136H914.602667v-859.077973z"  horiz-adv-x="1024" />

    
    <glyph glyph-name="bulb-s" unicode="&#59656;" d="M605.771093 3.24608h-208.41472c-12.301653 0-20.988587-8.68352-20.988586-20.98176 0-13.02528 8.686933-20.98176 20.988586-20.98176h208.41472c12.301653 0 20.985173 8.68352 20.985174 20.98176s-8.68352 20.98176-20.985174 20.98176z m41.970347 84.67456h-292.355413c-12.301653 0-20.985173-8.690347-20.985174-20.988587 0-13.02528 8.68352-20.98176 20.985174-20.98176h291.6352c12.301653 0 20.98176 8.68352 20.98176 20.98176 0.72704 12.29824-7.95648 20.988587-20.261547 20.988587zM501.562027 891.904C305.452373 891.904 146.967893 735.593813 146.967893 544.546133c0-101.31456 45.591893-196.836693 123.02336-262.690133 16.643413-13.021867 25.326933-34.010453 25.326934-54.995627v-29.668693c0-38.355627 31.11936-69.471573 66.573653-69.471573h277.162667c37.628587 0 66.577067 31.839573 66.577066 69.471573v29.668693c0 20.985173 8.686933 40.523093 25.326934 54.995627 77.438293 65.85344 123.02336 160.651947 123.02336 262.690133C856.152747 734.870187 697.675093 891.904 501.562027 891.904z m227.232426-389.328213c-10.134187 0-18.817707 8.68352-18.817706 18.814293-2.174293 54.99904-25.330347 112.165547-62.235307 154.139307-25.330347 27.497813-68.747947 61.51168-131.70688 61.51168-10.12736 0-20.98176 8.68352-20.98176 20.985173 0 13.02528 8.68352 20.985173 20.98176 20.985173 60.791467 0 116.514133-25.326933 160.651947-73.813333 44.14464-48.4864 70.918827-116.507307 73.089706-181.63712 2.174293-10.8544-8.68352-20.985173-20.98176-20.985173z m-164.273493-583.99744H439.330133c-12.305067 0-20.988587-8.68352-20.988586-20.98176 0-13.02528 8.68352-20.988587 20.988586-20.988587h125.190827c12.301653 0 20.985173 8.686933 20.985173 20.988587-0.723627 12.301653-8.68352 20.98176-20.985173 20.98176z"  horiz-adv-x="1024" />

    
    <glyph glyph-name="heart-l" unicode="&#59657;" d="M752 752c55.59808 0 107.8016-21.60128 147.0976-60.9024S960 599.59808 960 544c0-32.70144-6.09792-66.40128-18.0992-100.1984-11.40224-32-28.29824-64.90112-50.29888-97.80224-38.70208-57.79968-93.39904-116.1984-162.49856-173.59872-86.09792-71.5008-173.50144-123.60192-217.09824-147.90144-43.20256 24.00256-129.39776 75.10016-215.19872 146.00192-69.60128 57.4976-124.60032 115.99872-163.70176 173.99808-22.20032 33.1008-39.30112 66.0992-50.80064 98.40128-12.10368 34.2016-18.304 68.10112-18.304 101.09952 0 55.59808 21.60128 107.8016 60.9024 147.0976s91.49952 60.9024 147.0976 60.9024c76.9024 0 147.2-42.19904 183.59808-110.10048l28.20096-52.70016c12.09856-22.5024 44.40064-22.5024 56.40192 0l28.20096 52.70016c36.39808 67.90144 106.69568 110.10048 183.59808 110.10048z m0 64c-101.2992 0-189.70112-55.3984-236.49792-137.6a3.95264 3.95264 0 0 0-6.90176 0c-46.8992 82.2016-135.30112 137.6-236.60032 137.6C121.79968 816 0 694.20032 0 544c0-338.00192 512-592 512-592S1024 207.00160000000005 1024 544c0 150.20032-121.79968 272-272 272z"  horiz-adv-x="1024" />

    
    <glyph glyph-name="coins-l" unicode="&#59658;" d="M511.982933 429.9264c245.08416 0 505.473707 80.44544 505.473707 229.77536 0 149.333333-260.389547 229.778773-505.473707 229.778773-245.087573 0-505.480533-80.44544-505.480533-229.778773 0-149.32992 260.39296-229.77536 505.480533-229.77536z m0 367.69792c252.44672 0 413.62432-81.599147 413.62432-137.92256 0-56.32-161.1776-137.775787-413.62432-137.775787S98.358613 603.528533 98.358613 659.70176c0 56.17664 161.16736 137.92256 413.62432 137.92256zM98.208427 466.61632c-20.507307 15.02208-49.24416 10.397013-64.12288-10.113707-18.773333-25.705813-28.020053-53.152427-27.439787-81.455786 1.150293-69.178027 60.3648-129.399467 166.372693-169.69728 87.668053-33.355093 201.325227-51.264853 321.921707-51.264854 6.929067 0 14.00832 0.150187 21.08416 0.150187 245.087573 4.334933 504.029867 89.388373 501.43232 238.441813-0.290133 21.661013-6.355627 42.748587-18.193067 62.8224-12.854613 21.951147-41.30816 29.17376-62.825813 16.319147-21.8624-12.752213-29.24544-40.81664-16.493227-62.67904l0.170667-0.28672c3.611307-6.21568 5.341867-11.84768 5.492053-17.62304 1.010347-56.180053-158.726827-140.52352-411.16672-145.14176-117.562027-1.440427-226.60096 14.011733-308.626773 45.19936-64.703147 24.552107-106.728107 58.064213-107.1616 85.504-0.146773 7.799467 3.170987 16.462507 9.673387 25.55904 14.86848 20.64384 10.400427 49.384107-10.11712 64.26624z m831.726933-272.100693c-20.9408-14.15168-26.722987-42.74176-12.427947-63.839574 5.48864-8.07936 8.093013-15.445333 8.093014-22.388053 0-56.17664-161.1776-137.92256-413.620907-137.92256-252.450133 0-413.62432 81.74592-413.62432 137.92256 0 6.792533 2.450773 13.868373 7.36256 21.377707 13.861547 21.230933 8.086187 49.681067-13.144747 63.685973-21.234347 13.86496-49.681067 7.949653-63.6928-13.141333-14.875307-22.678187-22.38464-46.800213-22.38464-71.775574 0-149.476693 260.396373-229.922133 505.483947-229.922133 245.077333 0 505.470293 80.44544 505.470293 229.771947 0 25.555627-7.94624 50.40128-23.688533 73.806506-14.148267 21.0944-42.738347 26.5728-63.82592 12.424534z"  horiz-adv-x="1024" />

    
    <glyph glyph-name="large-l" unicode="&#59659;" d="M73.87136 719.616v-669.259093h874.79296V719.616H73.87136zM0 793.490773h1024v-818.466133H0V793.490773z"  horiz-adv-x="1024" />

    
    <glyph glyph-name="shrink-l" unicode="&#59660;" d="M977.202582 546.557577c0-10.997713-8.400177-30.975867-32.402634-30.972453h-261.811781c-24.002457 0-43.509573 18.537734-43.509573 42.069152V807.963173c0 22.828275 16.820834 42.488991 33.34471 40.468306 15.684199-1.914872 30.911014-11.59163 30.917841-35.129875l0.965969-234.706618s234.529125 0.037547 241.410375-1.068369c13.578182-2.167457 31.085093-18.582107 31.085093-30.96904zM710.362983 538.512385c-16.796941-16.732088-40.185001-20.391166-52.438815-8.215858-12.281121 12.192374-8.645936 35.457554 8.161245 52.189642l298.190931 298.105599c16.796941 16.738915 40.178174 20.401406 52.459295 8.212444 12.264054-12.188961 8.625456-35.443901-8.174898-52.179402l-298.197758-298.112425zM46.793356 221.449215c0 10.994299 8.400177 30.972453 32.402634 30.972454h261.811781c24.002457 0 43.509573-18.541147 43.509573-42.072566v-250.31231c0-22.828275-16.820834-42.485577-33.34471-40.464893-15.684199 1.914872-30.911014 11.59163-30.91784 35.126462l-0.96597 234.706618s-234.529125-0.034133-241.410375 1.068368c-13.578182 2.167457-31.085093 18.582107-31.085093 30.975867zM313.632955 229.487581c16.796941 16.732088 40.185001 20.394579 52.438815 8.219271 12.281121-12.192374 8.645936-35.460968-8.161245-52.193056l-298.190931-298.105598c-16.796941-16.738915-40.178174-20.401406-52.459295-8.212444-12.264054 12.192374-8.625456 35.447314 8.174899 52.179402l298.197757 298.112425z"  horiz-adv-x="1024" />

    
    <glyph glyph-name="cartoon-l" unicode="&#59661;" d="M806.946133 731.83232l43.738454 90.395307c12.393813 24.784213 2.19136 55.401813-22.596267 67.795626-24.787627 12.3904-53.947733 2.184533-66.341547-22.59968l-43.738453-90.395306c-12.393813-24.787627-2.19136-55.401813 22.59968-67.795627 24.787627-12.3904 54.678187-2.184533 66.338133 22.59968zM238.329173 725.271893L194.594133 815.6672c-12.393813 24.787627-2.19136 55.405227 22.59968 67.795627 24.057173 12.393813 53.94432 2.19136 66.33472-22.596267l43.738454-90.395307c12.397227-24.784213 2.187947-55.401813-22.596267-67.79904-24.787627-12.3904-54.674773-2.184533-66.341547 22.59968z m226.720427-637.873493c0 27.706027 21.869227 50.302293 49.57184 50.302293 27.6992 0 49.565013-22.596267 49.565013-50.302293 0-27.6992-21.865813-50.29888-49.565013-50.29888-27.702613 0-49.57184 22.59968-49.57184 50.29888z m131.222187-215.046827h-140.6976c-161.836373-0.733867-301.800107-1.457493-384.91136 83.104427C24.009387 2.839893 1.409707 69.905067 1.409707 161.030827c0 296.704 238.380373 556.957013 509.569706 556.957013 271.182507 0 509.566293-260.253013 509.566294-556.957013 0-88.203947-22.603093-154.54208-69.25312-201.929387-78.73536-79.4624-205.57824-86.749867-355.0208-86.749867z m-93.31712 101.3248h47.387306c146.530987-0.723627 273.370453-1.457493 331.69408 57.593174 26.968747 27.6992 40.093013 69.98016 40.093014 130.48832 0 238.380373-196.099413 456.349013-411.153067 456.349013S99.822933 400.872107 99.822933 161.76128c0-62.692693 13.124267-106.437973 40.096427-134.13376 53.947733-55.405227 174.957227-53.951147 314.924373-53.951147h48.110934z m-98.413227 256.607574c-13.847893 0-27.702613 5.833387-37.905067 17.50016-22.59968 26.968747-79.4624 27.702613-102.058666 0.72704-18.223787-21.138773-48.841387-23.330133-69.983574-5.102934-20.411733 18.223787-22.596267 50.302293-5.102933 71.441067 30.614187 35.720533 75.810133 56.132267 125.385387 56.132267 50.302293 0 96.22528-21.138773 126.849706-57.58976 17.493333-21.142187 15.305387-53.21728-5.833386-70.710614-8.748373-8.7552-20.415147-12.397227-31.351467-12.397226z m390.014293 0c-13.851307 0-27.702613 5.833387-37.905066 17.50016-22.59968 26.968747-79.4624 27.702613-102.058667 0.72704-18.223787-21.138773-48.841387-23.330133-69.983573-5.102934-20.411733 18.223787-22.596267 50.302293-5.09952 71.441067 30.6176 35.720533 75.810133 56.132267 125.381973 56.132267 50.302293 0 96.22528-21.138773 126.846293-57.58976 17.496747-21.142187 15.305387-53.21728-5.829973-70.710614-8.748373-8.7552-20.415147-12.397227-31.351467-12.397226z"  horiz-adv-x="1024" />

    
    <glyph glyph-name="camera-l" unicode="&#59662;" d="M508.900693 39.33184c230.260053 0 417.536 191.645013 417.536 427.73504S739.160747 894.805333 508.900693 894.805333C278.637227 894.805333 91.364693 703.163733 91.364693 467.070293s187.26912-427.738453 417.536-427.738453z m0 781.8752c189.457067 0 343.20384-158.85312 343.20384-354.136747s-153.746773-354.136747-343.20384-354.136746-343.210667 158.85312-343.210666 354.136746S319.443627 821.20704 508.900693 821.20704z m352.67584-701.71648c-18.944 8.01792-40.802987-0.72704-48.820906-19.677867-7.287467-16.759467-1.457493-36.43392 14.574933-45.90592 25.504427-13.11744 32.06144-24.046933 32.06144-26.231466-2.18112-24.046933-123.87328-80.882347-349.76768-80.882347-222.972587 0-347.579733 57.562453-349.76768 80.882347 0 2.184533 5.829973 12.386987 30.610773 25.504426 17.486507 10.19904 24.040107 32.791893 13.841067 50.2784-10.19904 16.759467-31.3344 23.31648-48.820907 14.574934-57.56928-30.60736-69.225813-66.31424-69.225813-90.35776 0-106.390187 220.061013-154.484053 424.093013-154.484054 204.762453 0 424.820053 48.093867 424.820054 154.484054-1.45408 24.773973-14.57152 60.47744-73.598294 91.815253z m-352.67584 147.18976c111.489707 0 201.844053 89.63072 201.844054 200.389973s-90.35776 200.389973-201.844054 201.1136c-111.489707 0-201.844053-89.627307-201.844053-200.38656s90.354347-201.117013 201.844053-201.117013zM438.944427 631.022933c45.909333 0 82.33984-36.43392 82.33984-82.343253 0-45.175467-37.164373-82.33984-82.33984-82.33984-45.909333 0-82.343253 36.43392-82.343254 82.33984 0 45.909333 37.167787 82.343253 82.343254 82.343253z"  horiz-adv-x="1024" />

    
    <glyph glyph-name="download-l" unicode="&#59663;" d="M981.087573 309.51424c-21.787307 0-39.20896-16.70144-39.20896-37.758293v-214.941014c0-12.342613-10.164907-22.510933-23.237973-22.510933H105.35936c-13.073067 0-23.23456 10.16832-23.23456 22.510933v214.941014c-1.457493 21.056853-20.333227 37.034667-42.11712 34.853546-19.606187-1.450667-34.853547-16.70144-36.307627-34.853546v-244.708694c0-37.761707 31.9488-68.25984 70.434134-68.25984h875.731626c39.205547 0 70.434133 30.501547 70.434134 68.25984v244.708694c0 21.056853-17.42848 37.758293-39.212374 37.758293z m-495.95392-158.30016c15.24736-14.523733 39.936-15.24736 55.18336 0l177.18272 171.373227c14.523733 15.9744 13.06624 39.936-2.90816 53.732693-15.24736 13.069653-37.761707 13.069653-52.282026 0L551.936 269.57824V772.068693c-1.450667 21.056853-19.602773 37.034667-41.386667 35.580587-19.6096-1.45408-35.584-16.70144-37.034666-35.580587v-502.490453l-109.64992 106.74176c-15.243947 14.523733-39.936 14.523733-55.18336 0-15.250773-14.523733-15.250773-38.48192 0-53.732693l176.452266-171.373227z"  horiz-adv-x="1024" />

    
    <glyph glyph-name="earphone-l" unicode="&#59664;" d="M853.87264 360.577707v119.67488c0 79.291733-35.147093 154.176853-99.57376 210.711893-64.43008 56.531627-150.094507 87.36768-240.87552 87.36768-90.791253 0-176.448853-30.836053-240.878933-87.36768-64.426667-56.53504-99.570347-130.686293-99.570347-210.711893v-119.67488c-94.446933 0-171.32544-66.80576-171.32544-149.773654v-49.923413c0-82.96448 76.875093-149.773653 171.32544-149.773653h16.841387c21.968213 0 40.270507 15.418027 40.270506 35.242666V480.249173c0 66.075307 29.2864 128.48128 82.72896 175.469227C366.260907 702.70976 437.27872 728.405333 513.42336 728.405333c76.141227 0 147.15904-25.695573 200.605013-72.68352s82.732373-109.39392 82.732374-175.469226v-435.37408c0-19.08736 17.568427-35.23584 40.270506-35.23584h16.841387c94.44352 0 171.318613 66.80576 171.318613 149.773653V209.339733c0.003413 83.694933-76.137813 151.237973-171.318613 151.237974zM172.97408 60.296533c-62.96576 0-114.21696 44.786347-114.21696 99.85024v49.923414c0 55.063893 51.2512 99.85024 114.21696 99.85024v-249.623894z m795.112107 99.85024c0-55.063893-51.254613-99.85024-114.213547-99.85024v250.361174c62.958933 0 114.213547-44.786347 114.213547-99.853654v-50.65728zM315.743573 280.552107c-16.10752 0-28.555947-11.748693-28.555946-26.432854v-156.37504c0-14.68416 12.448427-26.432853 28.555946-26.432853 16.104107 0 28.552533 11.748693 28.552534 26.432853v156.37504c0 14.68416-13.17888 26.432853-28.552534 26.432854z m395.359574-2.2016c-16.10752 0-28.555947-11.74528-28.555947-26.42944v-156.378454c0-14.68416 12.448427-26.432853 28.555947-26.432853 16.104107 0 28.54912 11.748693 28.54912 26.432853v156.378454c0.003413 14.680747-12.445013 26.42944-28.54912 26.42944z"  horiz-adv-x="1025" />

    
    <glyph glyph-name="collect-l" unicode="&#59665;" d="M960.293547 632.111787H741.512533l-213.732693 179.073706c-10.830507 10.830507-25.27232 17.329493-40.43776 17.329494H63.491413c-31.051093 0-56.32-25.27232-56.32-56.32v-785.605974c0-31.051093 25.27232-56.323413 56.32-56.323413h897.52576c31.051093 0 56.323413 25.27232 56.323414 56.323413V575.7952c-0.723627 31.04768-25.995947 56.316587-57.04704 56.316587zM63.491413 772.194987h424.574294l2.167466-2.167467 2.167467-2.164053 162.46784-135.75168H63.491413v140.0832z m896.802134-785.605974H63.491413V575.7952h897.52576v-589.206187h-0.723626z m-286.655147 262.109867h-151.63392v-149.466453h-46.933333v149.466453H323.437227v49.821013h150.913706v149.469867h46.933334v-149.469867h151.63392l0.720213-49.821013z"  horiz-adv-x="1024" />

    
    <glyph glyph-name="edit-l" unicode="&#59666;" d="M967.5264-50.285227c20.04992 0 36.38272-17.599147 36.38272-38.8608 0-21.254827-16.3328-38.853973-35.642027-38.853973H54.934187c-20.04992 0-36.38272 17.599147-36.38272 38.853973 0 21.261653 16.336213 38.8608 35.642026 38.8608h913.332907z m0 705.221974L395.769173 37.6832l-222.764373-24.930987 23.016107 240.452267L692.7872 789.828267 767.040853 870.468267c33.416533 35.918507 92.074667 35.918507 125.4912 0l74.253654-80.64c16.336213-17.59232 25.98912-42.519893 25.98912-67.447467 0.744107-25.654613-8.912213-49.114453-25.248427-67.444053zM253.19424 99.990187l109.1584 11.73504L816.04608 601.422507 718.032213 707.720533 264.331947 218.01984l-11.137707-118.029653zM830.1568 821.346987c-4.457813 0-8.912213-2.194773-11.881813-5.13024L769.262933 763.436373l98.020694-106.298026 49.005226 52.783786a18.916693 18.916693 0 0 1 0 25.658027L842.0352 816.213333c-3.710293 2.93888-7.424 5.133653-11.8784 5.133654z"  horiz-adv-x="1024" />

    
    <glyph glyph-name="disk-l" unicode="&#59667;" d="M980.497067 581.205333C871.570773 839.90528 573.559467 961.334613 314.85952 852.415147 56.162987 743.50592-65.276587 445.498027 43.64288 186.79808c108.91264-258.706773 406.92736-380.13952 665.617067-271.22688 188.49792 79.346347 311.046827 263.918933 311.046826 468.432213a505.163093 505.163093 0 0 1-39.809706 197.20192z m-163.764907-500.217173c-167.355733-167.328427-438.674773-167.328427-606.020267 0-167.35232 167.355733-167.35232 438.6816 0 606.020267 167.345493 167.348907 438.678187 167.348907 606.020267 0a428.567893 428.567893 0 0 0 125.504853-303.005014 425.734827 425.734827 0 0 0-125.504853-303.015253zM513.72032 773.55008C298.571093 773.543253 124.173653 599.135573 124.166827 384H202.24c0 172.02176 139.444907 311.466667 311.473493 311.466667V773.55008h0.006827z m0-246.603093c-78.953813 0-142.9504-64-142.9504-142.946987s64-142.946987 142.9504-142.946987c78.933333 0 142.94016 64 142.94016 142.946987-0.085333 78.916267-64.034133 142.854827-142.94016 142.946987z m0-207.8208c-35.82976-0.375467-65.1776 28.361387-65.553067 64.187733-0.375467 35.82976 28.361387 65.1776 64.187734 65.55648h1.365333c35.822933-0.003413 64.853333-29.047467 64.853333-64.866987-0.04096-35.805867-29.05088-64.822613-64.853333-64.877226z"  horiz-adv-x="1024" />

    
    <glyph glyph-name="more-l" unicode="&#59668;" d="M0 368.64c0-51.449173 41.70752-93.166933 93.166933-93.166933 51.456 0 93.166933 41.71776 93.166934 93.166933 0 51.452587-41.710933 93.166933-93.166934 93.166933-51.459413 0-93.166933-41.714347-93.166933-93.166933z m419.259733 0c0-51.449173 41.71776-93.166933 93.166934-93.166933 51.456 0 93.166933 41.71776 93.166933 93.166933 0 51.452587-41.710933 93.166933-93.166933 93.166933-51.449173 0-93.166933-41.714347-93.166934-93.166933z m419.25632 0c0-51.449173 41.70752-93.166933 93.170347-93.166933 51.456 0 93.166933 41.71776 93.166933 93.166933 0 51.452587-41.710933 93.166933-93.166933 93.166933-51.462827 0-93.170347-41.714347-93.170347-93.166933z"  horiz-adv-x="1024" />

    
    </font>
</defs>
</svg>
